G04 #@! TF.FileFunction,Legend,Top*
%FSLAX46Y46*%
G04 Gerber Fmt 4.6, Leading zero omitted, Abs format (unit mm)*
G04 Created by KiCad (PCBNEW 4.0.7) date 03/31/21 18:46:28*
%MOMM*%
%LPD*%
G01*
G04 APERTURE LIST*
%ADD10C,0.100000*%
%ADD11C,0.150000*%
%ADD12C,0.120000*%
G04 APERTURE END LIST*
D10*
D11*
X87138096Y-63732143D02*
X87090477Y-63779762D01*
X86947620Y-63827381D01*
X86852382Y-63827381D01*
X86709524Y-63779762D01*
X86614286Y-63684524D01*
X86566667Y-63589286D01*
X86519048Y-63398810D01*
X86519048Y-63255952D01*
X86566667Y-63065476D01*
X86614286Y-62970238D01*
X86709524Y-62875000D01*
X86852382Y-62827381D01*
X86947620Y-62827381D01*
X87090477Y-62875000D01*
X87138096Y-62922619D01*
X88138096Y-63732143D02*
X88090477Y-63779762D01*
X87947620Y-63827381D01*
X87852382Y-63827381D01*
X87709524Y-63779762D01*
X87614286Y-63684524D01*
X87566667Y-63589286D01*
X87519048Y-63398810D01*
X87519048Y-63255952D01*
X87566667Y-63065476D01*
X87614286Y-62970238D01*
X87709524Y-62875000D01*
X87852382Y-62827381D01*
X87947620Y-62827381D01*
X88090477Y-62875000D01*
X88138096Y-62922619D01*
X88566667Y-63446429D02*
X89328572Y-63446429D01*
X90138096Y-63303571D02*
X90280953Y-63351190D01*
X90328572Y-63398810D01*
X90376191Y-63494048D01*
X90376191Y-63636905D01*
X90328572Y-63732143D01*
X90280953Y-63779762D01*
X90185715Y-63827381D01*
X89804762Y-63827381D01*
X89804762Y-62827381D01*
X90138096Y-62827381D01*
X90233334Y-62875000D01*
X90280953Y-62922619D01*
X90328572Y-63017857D01*
X90328572Y-63113095D01*
X90280953Y-63208333D01*
X90233334Y-63255952D01*
X90138096Y-63303571D01*
X89804762Y-63303571D01*
X90995238Y-63351190D02*
X90995238Y-63827381D01*
X90661905Y-62827381D02*
X90995238Y-63351190D01*
X91328572Y-62827381D01*
X91661905Y-63446429D02*
X92423810Y-63446429D01*
X92852381Y-63779762D02*
X92995238Y-63827381D01*
X93233334Y-63827381D01*
X93328572Y-63779762D01*
X93376191Y-63732143D01*
X93423810Y-63636905D01*
X93423810Y-63541667D01*
X93376191Y-63446429D01*
X93328572Y-63398810D01*
X93233334Y-63351190D01*
X93042857Y-63303571D01*
X92947619Y-63255952D01*
X92900000Y-63208333D01*
X92852381Y-63113095D01*
X92852381Y-63017857D01*
X92900000Y-62922619D01*
X92947619Y-62875000D01*
X93042857Y-62827381D01*
X93280953Y-62827381D01*
X93423810Y-62875000D01*
X93804762Y-63541667D02*
X94280953Y-63541667D01*
X93709524Y-63827381D02*
X94042857Y-62827381D01*
X94376191Y-63827381D01*
X89876191Y-64810714D02*
X89876191Y-65477381D01*
X89638095Y-64429762D02*
X89400000Y-65144048D01*
X90019048Y-65144048D01*
X90400000Y-65382143D02*
X90447619Y-65429762D01*
X90400000Y-65477381D01*
X90352381Y-65429762D01*
X90400000Y-65382143D01*
X90400000Y-65477381D01*
X91066666Y-64477381D02*
X91161905Y-64477381D01*
X91257143Y-64525000D01*
X91304762Y-64572619D01*
X91352381Y-64667857D01*
X91400000Y-64858333D01*
X91400000Y-65096429D01*
X91352381Y-65286905D01*
X91304762Y-65382143D01*
X91257143Y-65429762D01*
X91161905Y-65477381D01*
X91066666Y-65477381D01*
X90971428Y-65429762D01*
X90923809Y-65382143D01*
X90876190Y-65286905D01*
X90828571Y-65096429D01*
X90828571Y-64858333D01*
X90876190Y-64667857D01*
X90923809Y-64572619D01*
X90971428Y-64525000D01*
X91066666Y-64477381D01*
X83704762Y-58127381D02*
X83895239Y-58127381D01*
X83990477Y-58175000D01*
X84085715Y-58270238D01*
X84133334Y-58460714D01*
X84133334Y-58794048D01*
X84085715Y-58984524D01*
X83990477Y-59079762D01*
X83895239Y-59127381D01*
X83704762Y-59127381D01*
X83609524Y-59079762D01*
X83514286Y-58984524D01*
X83466667Y-58794048D01*
X83466667Y-58460714D01*
X83514286Y-58270238D01*
X83609524Y-58175000D01*
X83704762Y-58127381D01*
X84561905Y-59127381D02*
X84561905Y-58127381D01*
X84942858Y-58127381D01*
X85038096Y-58175000D01*
X85085715Y-58222619D01*
X85133334Y-58317857D01*
X85133334Y-58460714D01*
X85085715Y-58555952D01*
X85038096Y-58603571D01*
X84942858Y-58651190D01*
X84561905Y-58651190D01*
X85514286Y-58841667D02*
X85990477Y-58841667D01*
X85419048Y-59127381D02*
X85752381Y-58127381D01*
X86085715Y-59127381D01*
X86419048Y-59127381D02*
X86419048Y-58127381D01*
X86752382Y-58841667D01*
X87085715Y-58127381D01*
X87085715Y-59127381D01*
X87561905Y-59127381D02*
X87561905Y-58127381D01*
X87942858Y-58127381D01*
X88038096Y-58175000D01*
X88085715Y-58222619D01*
X88133334Y-58317857D01*
X88133334Y-58460714D01*
X88085715Y-58555952D01*
X88038096Y-58603571D01*
X87942858Y-58651190D01*
X87561905Y-58651190D01*
X83585715Y-60253571D02*
X83728572Y-60301190D01*
X83776191Y-60348810D01*
X83823810Y-60444048D01*
X83823810Y-60586905D01*
X83776191Y-60682143D01*
X83728572Y-60729762D01*
X83633334Y-60777381D01*
X83252381Y-60777381D01*
X83252381Y-59777381D01*
X83585715Y-59777381D01*
X83680953Y-59825000D01*
X83728572Y-59872619D01*
X83776191Y-59967857D01*
X83776191Y-60063095D01*
X83728572Y-60158333D01*
X83680953Y-60205952D01*
X83585715Y-60253571D01*
X83252381Y-60253571D01*
X84442857Y-60301190D02*
X84442857Y-60777381D01*
X84109524Y-59777381D02*
X84442857Y-60301190D01*
X84776191Y-59777381D01*
X85871429Y-60777381D02*
X85871429Y-59777381D01*
X86109524Y-59777381D01*
X86252382Y-59825000D01*
X86347620Y-59920238D01*
X86395239Y-60015476D01*
X86442858Y-60205952D01*
X86442858Y-60348810D01*
X86395239Y-60539286D01*
X86347620Y-60634524D01*
X86252382Y-60729762D01*
X86109524Y-60777381D01*
X85871429Y-60777381D01*
X87347620Y-60777381D02*
X86871429Y-60777381D01*
X86871429Y-59777381D01*
X87680953Y-60777381D02*
X87680953Y-59777381D01*
X88014287Y-60491667D01*
X88347620Y-59777381D01*
X88347620Y-60777381D01*
X55271429Y-66309524D02*
X55271429Y-65547619D01*
X54652381Y-65214286D02*
X55652381Y-64880953D01*
X54652381Y-64547619D01*
X55271429Y-76509524D02*
X55271429Y-75747619D01*
X55652381Y-76128571D02*
X54890476Y-76128571D01*
X54652381Y-75414286D02*
X55652381Y-75080953D01*
X54652381Y-74747619D01*
X55104762Y-72752381D02*
X55295239Y-72752381D01*
X55390477Y-72800000D01*
X55485715Y-72895238D01*
X55533334Y-73085714D01*
X55533334Y-73419048D01*
X55485715Y-73609524D01*
X55390477Y-73704762D01*
X55295239Y-73752381D01*
X55104762Y-73752381D01*
X55009524Y-73704762D01*
X54914286Y-73609524D01*
X54866667Y-73419048D01*
X54866667Y-73085714D01*
X54914286Y-72895238D01*
X55009524Y-72800000D01*
X55104762Y-72752381D01*
X54819048Y-70571429D02*
X55580953Y-70571429D01*
X54819048Y-68071429D02*
X55580953Y-68071429D01*
X55200001Y-68452381D02*
X55200001Y-67690476D01*
D12*
X65295000Y-62860000D02*
X66225000Y-62860000D01*
X68455000Y-62860000D02*
X67525000Y-62860000D01*
X68455000Y-62860000D02*
X68455000Y-60700000D01*
X65295000Y-62860000D02*
X65295000Y-61400000D01*
X93050000Y-60750000D02*
X93050000Y-59750000D01*
X91350000Y-59750000D02*
X91350000Y-60750000D01*
X95900000Y-60850000D02*
X94900000Y-60850000D01*
X94900000Y-62550000D02*
X95900000Y-62550000D01*
X97650000Y-65500000D02*
X97650000Y-64500000D01*
X95950000Y-64500000D02*
X95950000Y-65500000D01*
X97650000Y-70350000D02*
X97650000Y-69350000D01*
X95950000Y-69350000D02*
X95950000Y-70350000D01*
X71750000Y-65250000D02*
X71750000Y-64250000D01*
X70050000Y-64250000D02*
X70050000Y-65250000D01*
X91250000Y-73000000D02*
X92250000Y-73000000D01*
X92250000Y-71300000D02*
X91250000Y-71300000D01*
X92550000Y-69050000D02*
X92550000Y-68050000D01*
X90850000Y-68050000D02*
X90850000Y-69050000D01*
X74460000Y-62605000D02*
X74460000Y-61675000D01*
X74460000Y-59445000D02*
X74460000Y-60375000D01*
X74460000Y-59445000D02*
X72300000Y-59445000D01*
X74460000Y-62605000D02*
X73000000Y-62605000D01*
X74485000Y-66380000D02*
X74485000Y-65450000D01*
X74485000Y-63220000D02*
X74485000Y-64150000D01*
X74485000Y-63220000D02*
X72325000Y-63220000D01*
X74485000Y-66380000D02*
X73025000Y-66380000D01*
X72785000Y-75430000D02*
X72785000Y-74500000D01*
X72785000Y-72270000D02*
X72785000Y-73200000D01*
X72785000Y-72270000D02*
X70625000Y-72270000D01*
X72785000Y-75430000D02*
X71325000Y-75430000D01*
X66695000Y-79710000D02*
X67625000Y-79710000D01*
X69855000Y-79710000D02*
X68925000Y-79710000D01*
X69855000Y-79710000D02*
X69855000Y-77550000D01*
X66695000Y-79710000D02*
X66695000Y-78250000D01*
X51670000Y-76990000D02*
X54330000Y-76990000D01*
X51670000Y-66770000D02*
X51670000Y-76990000D01*
X54330000Y-66770000D02*
X54330000Y-76990000D01*
X51670000Y-66770000D02*
X54330000Y-66770000D01*
X51670000Y-65500000D02*
X51670000Y-64170000D01*
X51670000Y-64170000D02*
X53000000Y-64170000D01*
X68380000Y-68540000D02*
X67450000Y-68540000D01*
X65220000Y-68540000D02*
X66150000Y-68540000D01*
X65220000Y-68540000D02*
X65220000Y-70700000D01*
X68380000Y-68540000D02*
X68380000Y-70000000D01*
X68305000Y-64990000D02*
X67375000Y-64990000D01*
X65145000Y-64990000D02*
X66075000Y-64990000D01*
X65145000Y-64990000D02*
X65145000Y-67150000D01*
X68305000Y-64990000D02*
X68305000Y-66450000D01*
X63530000Y-78120000D02*
X62600000Y-78120000D01*
X60370000Y-78120000D02*
X61300000Y-78120000D01*
X60370000Y-78120000D02*
X60370000Y-80280000D01*
X63530000Y-78120000D02*
X63530000Y-79580000D01*
X61645000Y-62910000D02*
X62575000Y-62910000D01*
X64805000Y-62910000D02*
X63875000Y-62910000D01*
X64805000Y-62910000D02*
X64805000Y-60750000D01*
X61645000Y-62910000D02*
X61645000Y-61450000D01*
X64730000Y-64990000D02*
X63800000Y-64990000D01*
X61570000Y-64990000D02*
X62500000Y-64990000D01*
X61570000Y-64990000D02*
X61570000Y-67150000D01*
X64730000Y-64990000D02*
X64730000Y-66450000D01*
X64680000Y-68540000D02*
X63750000Y-68540000D01*
X61520000Y-68540000D02*
X62450000Y-68540000D01*
X61520000Y-68540000D02*
X61520000Y-70700000D01*
X64680000Y-68540000D02*
X64680000Y-70000000D01*
X78930000Y-64015000D02*
X78000000Y-64015000D01*
X75770000Y-64015000D02*
X76700000Y-64015000D01*
X75770000Y-64015000D02*
X75770000Y-66175000D01*
X78930000Y-64015000D02*
X78930000Y-65475000D01*
X72935000Y-80455000D02*
X72935000Y-79525000D01*
X72935000Y-77295000D02*
X72935000Y-78225000D01*
X72935000Y-77295000D02*
X70775000Y-77295000D01*
X72935000Y-80455000D02*
X71475000Y-80455000D01*
X82705000Y-64065000D02*
X81775000Y-64065000D01*
X79545000Y-64065000D02*
X80475000Y-64065000D01*
X79545000Y-64065000D02*
X79545000Y-66225000D01*
X82705000Y-64065000D02*
X82705000Y-65525000D01*
X76535000Y-75455000D02*
X76535000Y-74525000D01*
X76535000Y-72295000D02*
X76535000Y-73225000D01*
X76535000Y-72295000D02*
X74375000Y-72295000D01*
X76535000Y-75455000D02*
X75075000Y-75455000D01*
X90205000Y-68265000D02*
X89275000Y-68265000D01*
X87045000Y-68265000D02*
X87975000Y-68265000D01*
X87045000Y-68265000D02*
X87045000Y-70425000D01*
X90205000Y-68265000D02*
X90205000Y-69725000D01*
X96910000Y-77030000D02*
X96910000Y-76100000D01*
X96910000Y-73870000D02*
X96910000Y-74800000D01*
X96910000Y-73870000D02*
X94750000Y-73870000D01*
X96910000Y-77030000D02*
X95450000Y-77030000D01*
X87060000Y-80080000D02*
X87060000Y-79150000D01*
X87060000Y-76920000D02*
X87060000Y-77850000D01*
X87060000Y-76920000D02*
X84900000Y-76920000D01*
X87060000Y-80080000D02*
X85600000Y-80080000D01*
X93910000Y-81505000D02*
X93910000Y-80575000D01*
X93910000Y-78345000D02*
X93910000Y-79275000D01*
X93910000Y-78345000D02*
X91750000Y-78345000D01*
X93910000Y-81505000D02*
X92450000Y-81505000D01*
X79240000Y-76420000D02*
X79240000Y-77350000D01*
X79240000Y-79580000D02*
X79240000Y-78650000D01*
X79240000Y-79580000D02*
X81400000Y-79580000D01*
X79240000Y-76420000D02*
X80700000Y-76420000D01*
X61385309Y-73904296D02*
G75*
G02X61345000Y-71595000I-40309J1154296D01*
G01*
X61324879Y-71595948D02*
G75*
G02X62474000Y-72990000I20121J-1154052D01*
G01*
X69665000Y-76370000D02*
X60015000Y-76370000D01*
X69665000Y-71419000D02*
X60015000Y-71419000D01*
X69665000Y-76370000D02*
X69665000Y-71419000D01*
X60015000Y-76370000D02*
X60015000Y-71419000D01*
X60469000Y-73484000D02*
X62080000Y-71874000D01*
X60609000Y-73625000D02*
X62221000Y-72015000D01*
X79385309Y-73504296D02*
G75*
G02X79345000Y-71195000I-40309J1154296D01*
G01*
X79324879Y-71195948D02*
G75*
G02X80474000Y-72590000I20121J-1154052D01*
G01*
X87665000Y-75970000D02*
X78015000Y-75970000D01*
X87665000Y-71019000D02*
X78015000Y-71019000D01*
X87665000Y-75970000D02*
X87665000Y-71019000D01*
X78015000Y-75970000D02*
X78015000Y-71019000D01*
X78469000Y-73084000D02*
X80080000Y-71474000D01*
X78609000Y-73225000D02*
X80221000Y-71615000D01*
X68450000Y-58170000D02*
X69650000Y-58170000D01*
X69650000Y-59930000D02*
X68450000Y-59930000D01*
X64220000Y-79775000D02*
X64220000Y-78575000D01*
X65980000Y-78575000D02*
X65980000Y-79775000D01*
X63325000Y-58195000D02*
X64525000Y-58195000D01*
X64525000Y-59955000D02*
X63325000Y-59955000D01*
X75745000Y-61125000D02*
X75745000Y-59925000D01*
X77505000Y-59925000D02*
X77505000Y-61125000D01*
X76800000Y-69020000D02*
X78000000Y-69020000D01*
X78000000Y-70780000D02*
X76800000Y-70780000D01*
X71900000Y-69945000D02*
X73100000Y-69945000D01*
X73100000Y-71705000D02*
X71900000Y-71705000D01*
X79070000Y-61150000D02*
X79070000Y-59950000D01*
X80830000Y-59950000D02*
X80830000Y-61150000D01*
X84095000Y-66950000D02*
X84095000Y-65750000D01*
X85855000Y-65750000D02*
X85855000Y-66950000D01*
X84700000Y-70680000D02*
X83500000Y-70680000D01*
X83500000Y-68920000D02*
X84700000Y-68920000D01*
X91075000Y-74820000D02*
X92275000Y-74820000D01*
X92275000Y-76580000D02*
X91075000Y-76580000D01*
X88095000Y-80050000D02*
X88095000Y-78850000D01*
X89855000Y-78850000D02*
X89855000Y-80050000D01*
X84180000Y-78000000D02*
X84180000Y-79200000D01*
X82420000Y-79200000D02*
X82420000Y-78000000D01*
X57920000Y-68235000D02*
X58850000Y-68235000D01*
X61080000Y-68235000D02*
X60150000Y-68235000D01*
X61080000Y-68235000D02*
X61080000Y-66075000D01*
X57920000Y-68235000D02*
X57920000Y-66775000D01*
X74120000Y-79550000D02*
X74120000Y-78350000D01*
X75880000Y-78350000D02*
X75880000Y-79550000D01*
X56670000Y-82870000D02*
X59330000Y-82870000D01*
X56670000Y-80270000D02*
X56670000Y-82870000D01*
X59330000Y-80270000D02*
X59330000Y-82870000D01*
X56670000Y-80270000D02*
X59330000Y-80270000D01*
X56670000Y-79000000D02*
X56670000Y-77670000D01*
X56670000Y-77670000D02*
X58000000Y-77670000D01*
X56670000Y-62870000D02*
X59330000Y-62870000D01*
X56670000Y-60270000D02*
X56670000Y-62870000D01*
X59330000Y-60270000D02*
X59330000Y-62870000D01*
X56670000Y-60270000D02*
X59330000Y-60270000D01*
X56670000Y-59000000D02*
X56670000Y-57670000D01*
X56670000Y-57670000D02*
X58000000Y-57670000D01*
X82070000Y-82830000D02*
X82070000Y-80170000D01*
X79470000Y-82830000D02*
X82070000Y-82830000D01*
X79470000Y-80170000D02*
X82070000Y-80170000D01*
X79470000Y-82830000D02*
X79470000Y-80170000D01*
X78200000Y-82830000D02*
X76870000Y-82830000D01*
X76870000Y-82830000D02*
X76870000Y-81500000D01*
D11*
X69947619Y-62020238D02*
X69900000Y-62115476D01*
X69804762Y-62210714D01*
X69661905Y-62353571D01*
X69614286Y-62448810D01*
X69614286Y-62544048D01*
X69852381Y-62496429D02*
X69804762Y-62591667D01*
X69709524Y-62686905D01*
X69519048Y-62734524D01*
X69185714Y-62734524D01*
X68995238Y-62686905D01*
X68900000Y-62591667D01*
X68852381Y-62496429D01*
X68852381Y-62305952D01*
X68900000Y-62210714D01*
X68995238Y-62115476D01*
X69185714Y-62067857D01*
X69519048Y-62067857D01*
X69709524Y-62115476D01*
X69804762Y-62210714D01*
X69852381Y-62305952D01*
X69852381Y-62496429D01*
X68947619Y-61686905D02*
X68900000Y-61639286D01*
X68852381Y-61544048D01*
X68852381Y-61305952D01*
X68900000Y-61210714D01*
X68947619Y-61163095D01*
X69042857Y-61115476D01*
X69138095Y-61115476D01*
X69280952Y-61163095D01*
X69852381Y-61734524D01*
X69852381Y-61115476D01*
X91107143Y-60366666D02*
X91154762Y-60414285D01*
X91202381Y-60557142D01*
X91202381Y-60652380D01*
X91154762Y-60795238D01*
X91059524Y-60890476D01*
X90964286Y-60938095D01*
X90773810Y-60985714D01*
X90630952Y-60985714D01*
X90440476Y-60938095D01*
X90345238Y-60890476D01*
X90250000Y-60795238D01*
X90202381Y-60652380D01*
X90202381Y-60557142D01*
X90250000Y-60414285D01*
X90297619Y-60366666D01*
X91202381Y-59414285D02*
X91202381Y-59985714D01*
X91202381Y-59700000D02*
X90202381Y-59700000D01*
X90345238Y-59795238D01*
X90440476Y-59890476D01*
X90488095Y-59985714D01*
X95233334Y-60307143D02*
X95185715Y-60354762D01*
X95042858Y-60402381D01*
X94947620Y-60402381D01*
X94804762Y-60354762D01*
X94709524Y-60259524D01*
X94661905Y-60164286D01*
X94614286Y-59973810D01*
X94614286Y-59830952D01*
X94661905Y-59640476D01*
X94709524Y-59545238D01*
X94804762Y-59450000D01*
X94947620Y-59402381D01*
X95042858Y-59402381D01*
X95185715Y-59450000D01*
X95233334Y-59497619D01*
X95614286Y-59497619D02*
X95661905Y-59450000D01*
X95757143Y-59402381D01*
X95995239Y-59402381D01*
X96090477Y-59450000D01*
X96138096Y-59497619D01*
X96185715Y-59592857D01*
X96185715Y-59688095D01*
X96138096Y-59830952D01*
X95566667Y-60402381D01*
X96185715Y-60402381D01*
X95557143Y-64966666D02*
X95604762Y-65014285D01*
X95652381Y-65157142D01*
X95652381Y-65252380D01*
X95604762Y-65395238D01*
X95509524Y-65490476D01*
X95414286Y-65538095D01*
X95223810Y-65585714D01*
X95080952Y-65585714D01*
X94890476Y-65538095D01*
X94795238Y-65490476D01*
X94700000Y-65395238D01*
X94652381Y-65252380D01*
X94652381Y-65157142D01*
X94700000Y-65014285D01*
X94747619Y-64966666D01*
X94652381Y-64633333D02*
X94652381Y-64014285D01*
X95033333Y-64347619D01*
X95033333Y-64204761D01*
X95080952Y-64109523D01*
X95128571Y-64061904D01*
X95223810Y-64014285D01*
X95461905Y-64014285D01*
X95557143Y-64061904D01*
X95604762Y-64109523D01*
X95652381Y-64204761D01*
X95652381Y-64490476D01*
X95604762Y-64585714D01*
X95557143Y-64633333D01*
X95607143Y-69866666D02*
X95654762Y-69914285D01*
X95702381Y-70057142D01*
X95702381Y-70152380D01*
X95654762Y-70295238D01*
X95559524Y-70390476D01*
X95464286Y-70438095D01*
X95273810Y-70485714D01*
X95130952Y-70485714D01*
X94940476Y-70438095D01*
X94845238Y-70390476D01*
X94750000Y-70295238D01*
X94702381Y-70152380D01*
X94702381Y-70057142D01*
X94750000Y-69914285D01*
X94797619Y-69866666D01*
X95035714Y-69009523D02*
X95702381Y-69009523D01*
X94654762Y-69247619D02*
X95369048Y-69485714D01*
X95369048Y-68866666D01*
X70783334Y-68132143D02*
X70735715Y-68179762D01*
X70592858Y-68227381D01*
X70497620Y-68227381D01*
X70354762Y-68179762D01*
X70259524Y-68084524D01*
X70211905Y-67989286D01*
X70164286Y-67798810D01*
X70164286Y-67655952D01*
X70211905Y-67465476D01*
X70259524Y-67370238D01*
X70354762Y-67275000D01*
X70497620Y-67227381D01*
X70592858Y-67227381D01*
X70735715Y-67275000D01*
X70783334Y-67322619D01*
X71688096Y-67227381D02*
X71211905Y-67227381D01*
X71164286Y-67703571D01*
X71211905Y-67655952D01*
X71307143Y-67608333D01*
X71545239Y-67608333D01*
X71640477Y-67655952D01*
X71688096Y-67703571D01*
X71735715Y-67798810D01*
X71735715Y-68036905D01*
X71688096Y-68132143D01*
X71640477Y-68179762D01*
X71545239Y-68227381D01*
X71307143Y-68227381D01*
X71211905Y-68179762D01*
X71164286Y-68132143D01*
X92058334Y-74232143D02*
X92010715Y-74279762D01*
X91867858Y-74327381D01*
X91772620Y-74327381D01*
X91629762Y-74279762D01*
X91534524Y-74184524D01*
X91486905Y-74089286D01*
X91439286Y-73898810D01*
X91439286Y-73755952D01*
X91486905Y-73565476D01*
X91534524Y-73470238D01*
X91629762Y-73375000D01*
X91772620Y-73327381D01*
X91867858Y-73327381D01*
X92010715Y-73375000D01*
X92058334Y-73422619D01*
X92915477Y-73327381D02*
X92725000Y-73327381D01*
X92629762Y-73375000D01*
X92582143Y-73422619D01*
X92486905Y-73565476D01*
X92439286Y-73755952D01*
X92439286Y-74136905D01*
X92486905Y-74232143D01*
X92534524Y-74279762D01*
X92629762Y-74327381D01*
X92820239Y-74327381D01*
X92915477Y-74279762D01*
X92963096Y-74232143D01*
X93010715Y-74136905D01*
X93010715Y-73898810D01*
X92963096Y-73803571D01*
X92915477Y-73755952D01*
X92820239Y-73708333D01*
X92629762Y-73708333D01*
X92534524Y-73755952D01*
X92486905Y-73803571D01*
X92439286Y-73898810D01*
X93807143Y-68716666D02*
X93854762Y-68764285D01*
X93902381Y-68907142D01*
X93902381Y-69002380D01*
X93854762Y-69145238D01*
X93759524Y-69240476D01*
X93664286Y-69288095D01*
X93473810Y-69335714D01*
X93330952Y-69335714D01*
X93140476Y-69288095D01*
X93045238Y-69240476D01*
X92950000Y-69145238D01*
X92902381Y-69002380D01*
X92902381Y-68907142D01*
X92950000Y-68764285D01*
X92997619Y-68716666D01*
X92902381Y-68383333D02*
X92902381Y-67716666D01*
X93902381Y-68145238D01*
X72961905Y-58977381D02*
X72961905Y-57977381D01*
X73200000Y-57977381D01*
X73342858Y-58025000D01*
X73438096Y-58120238D01*
X73485715Y-58215476D01*
X73533334Y-58405952D01*
X73533334Y-58548810D01*
X73485715Y-58739286D01*
X73438096Y-58834524D01*
X73342858Y-58929762D01*
X73200000Y-58977381D01*
X72961905Y-58977381D01*
X74485715Y-58977381D02*
X73914286Y-58977381D01*
X74200000Y-58977381D02*
X74200000Y-57977381D01*
X74104762Y-58120238D01*
X74009524Y-58215476D01*
X73914286Y-58263095D01*
X72961905Y-67727381D02*
X72961905Y-66727381D01*
X73200000Y-66727381D01*
X73342858Y-66775000D01*
X73438096Y-66870238D01*
X73485715Y-66965476D01*
X73533334Y-67155952D01*
X73533334Y-67298810D01*
X73485715Y-67489286D01*
X73438096Y-67584524D01*
X73342858Y-67679762D01*
X73200000Y-67727381D01*
X72961905Y-67727381D01*
X73914286Y-66822619D02*
X73961905Y-66775000D01*
X74057143Y-66727381D01*
X74295239Y-66727381D01*
X74390477Y-66775000D01*
X74438096Y-66822619D01*
X74485715Y-66917857D01*
X74485715Y-67013095D01*
X74438096Y-67155952D01*
X73866667Y-67727381D01*
X74485715Y-67727381D01*
X71361905Y-76952381D02*
X71361905Y-75952381D01*
X71600000Y-75952381D01*
X71742858Y-76000000D01*
X71838096Y-76095238D01*
X71885715Y-76190476D01*
X71933334Y-76380952D01*
X71933334Y-76523810D01*
X71885715Y-76714286D01*
X71838096Y-76809524D01*
X71742858Y-76904762D01*
X71600000Y-76952381D01*
X71361905Y-76952381D01*
X72266667Y-75952381D02*
X72885715Y-75952381D01*
X72552381Y-76333333D01*
X72695239Y-76333333D01*
X72790477Y-76380952D01*
X72838096Y-76428571D01*
X72885715Y-76523810D01*
X72885715Y-76761905D01*
X72838096Y-76857143D01*
X72790477Y-76904762D01*
X72695239Y-76952381D01*
X72409524Y-76952381D01*
X72314286Y-76904762D01*
X72266667Y-76857143D01*
X67611905Y-82502381D02*
X67611905Y-81502381D01*
X67850000Y-81502381D01*
X67992858Y-81550000D01*
X68088096Y-81645238D01*
X68135715Y-81740476D01*
X68183334Y-81930952D01*
X68183334Y-82073810D01*
X68135715Y-82264286D01*
X68088096Y-82359524D01*
X67992858Y-82454762D01*
X67850000Y-82502381D01*
X67611905Y-82502381D01*
X69040477Y-81835714D02*
X69040477Y-82502381D01*
X68802381Y-81454762D02*
X68564286Y-82169048D01*
X69183334Y-82169048D01*
X52666667Y-62622381D02*
X52666667Y-63336667D01*
X52619047Y-63479524D01*
X52523809Y-63574762D01*
X52380952Y-63622381D01*
X52285714Y-63622381D01*
X53666667Y-63622381D02*
X53095238Y-63622381D01*
X53380952Y-63622381D02*
X53380952Y-62622381D01*
X53285714Y-62765238D01*
X53190476Y-62860476D01*
X53095238Y-62908095D01*
X69947619Y-69395238D02*
X69900000Y-69490476D01*
X69804762Y-69585714D01*
X69661905Y-69728571D01*
X69614286Y-69823810D01*
X69614286Y-69919048D01*
X69852381Y-69871429D02*
X69804762Y-69966667D01*
X69709524Y-70061905D01*
X69519048Y-70109524D01*
X69185714Y-70109524D01*
X68995238Y-70061905D01*
X68900000Y-69966667D01*
X68852381Y-69871429D01*
X68852381Y-69680952D01*
X68900000Y-69585714D01*
X68995238Y-69490476D01*
X69185714Y-69442857D01*
X69519048Y-69442857D01*
X69709524Y-69490476D01*
X69804762Y-69585714D01*
X69852381Y-69680952D01*
X69852381Y-69871429D01*
X69852381Y-68490476D02*
X69852381Y-69061905D01*
X69852381Y-68776191D02*
X68852381Y-68776191D01*
X68995238Y-68871429D01*
X69090476Y-68966667D01*
X69138095Y-69061905D01*
X69797619Y-65820238D02*
X69750000Y-65915476D01*
X69654762Y-66010714D01*
X69511905Y-66153571D01*
X69464286Y-66248810D01*
X69464286Y-66344048D01*
X69702381Y-66296429D02*
X69654762Y-66391667D01*
X69559524Y-66486905D01*
X69369048Y-66534524D01*
X69035714Y-66534524D01*
X68845238Y-66486905D01*
X68750000Y-66391667D01*
X68702381Y-66296429D01*
X68702381Y-66105952D01*
X68750000Y-66010714D01*
X68845238Y-65915476D01*
X69035714Y-65867857D01*
X69369048Y-65867857D01*
X69559524Y-65915476D01*
X69654762Y-66010714D01*
X69702381Y-66105952D01*
X69702381Y-66296429D01*
X68702381Y-65534524D02*
X68702381Y-64915476D01*
X69083333Y-65248810D01*
X69083333Y-65105952D01*
X69130952Y-65010714D01*
X69178571Y-64963095D01*
X69273810Y-64915476D01*
X69511905Y-64915476D01*
X69607143Y-64963095D01*
X69654762Y-65010714D01*
X69702381Y-65105952D01*
X69702381Y-65391667D01*
X69654762Y-65486905D01*
X69607143Y-65534524D01*
X62064762Y-82047619D02*
X61969524Y-82000000D01*
X61874286Y-81904762D01*
X61731429Y-81761905D01*
X61636190Y-81714286D01*
X61540952Y-81714286D01*
X61588571Y-81952381D02*
X61493333Y-81904762D01*
X61398095Y-81809524D01*
X61350476Y-81619048D01*
X61350476Y-81285714D01*
X61398095Y-81095238D01*
X61493333Y-81000000D01*
X61588571Y-80952381D01*
X61779048Y-80952381D01*
X61874286Y-81000000D01*
X61969524Y-81095238D01*
X62017143Y-81285714D01*
X62017143Y-81619048D01*
X61969524Y-81809524D01*
X61874286Y-81904762D01*
X61779048Y-81952381D01*
X61588571Y-81952381D01*
X62874286Y-81285714D02*
X62874286Y-81952381D01*
X62636190Y-80904762D02*
X62398095Y-81619048D01*
X63017143Y-81619048D01*
X61222619Y-62295238D02*
X61175000Y-62390476D01*
X61079762Y-62485714D01*
X60936905Y-62628571D01*
X60889286Y-62723810D01*
X60889286Y-62819048D01*
X61127381Y-62771429D02*
X61079762Y-62866667D01*
X60984524Y-62961905D01*
X60794048Y-63009524D01*
X60460714Y-63009524D01*
X60270238Y-62961905D01*
X60175000Y-62866667D01*
X60127381Y-62771429D01*
X60127381Y-62580952D01*
X60175000Y-62485714D01*
X60270238Y-62390476D01*
X60460714Y-62342857D01*
X60794048Y-62342857D01*
X60984524Y-62390476D01*
X61079762Y-62485714D01*
X61127381Y-62580952D01*
X61127381Y-62771429D01*
X60127381Y-61438095D02*
X60127381Y-61914286D01*
X60603571Y-61961905D01*
X60555952Y-61914286D01*
X60508333Y-61819048D01*
X60508333Y-61580952D01*
X60555952Y-61485714D01*
X60603571Y-61438095D01*
X60698810Y-61390476D01*
X60936905Y-61390476D01*
X61032143Y-61438095D01*
X61079762Y-61485714D01*
X61127381Y-61580952D01*
X61127381Y-61819048D01*
X61079762Y-61914286D01*
X61032143Y-61961905D01*
X60229762Y-65497619D02*
X60134524Y-65450000D01*
X60039286Y-65354762D01*
X59896429Y-65211905D01*
X59801190Y-65164286D01*
X59705952Y-65164286D01*
X59753571Y-65402381D02*
X59658333Y-65354762D01*
X59563095Y-65259524D01*
X59515476Y-65069048D01*
X59515476Y-64735714D01*
X59563095Y-64545238D01*
X59658333Y-64450000D01*
X59753571Y-64402381D01*
X59944048Y-64402381D01*
X60039286Y-64450000D01*
X60134524Y-64545238D01*
X60182143Y-64735714D01*
X60182143Y-65069048D01*
X60134524Y-65259524D01*
X60039286Y-65354762D01*
X59944048Y-65402381D01*
X59753571Y-65402381D01*
X61039286Y-64402381D02*
X60848809Y-64402381D01*
X60753571Y-64450000D01*
X60705952Y-64497619D01*
X60610714Y-64640476D01*
X60563095Y-64830952D01*
X60563095Y-65211905D01*
X60610714Y-65307143D01*
X60658333Y-65354762D01*
X60753571Y-65402381D01*
X60944048Y-65402381D01*
X61039286Y-65354762D01*
X61086905Y-65307143D01*
X61134524Y-65211905D01*
X61134524Y-64973810D01*
X61086905Y-64878571D01*
X61039286Y-64830952D01*
X60944048Y-64783333D01*
X60753571Y-64783333D01*
X60658333Y-64830952D01*
X60610714Y-64878571D01*
X60563095Y-64973810D01*
X60154762Y-70697619D02*
X60059524Y-70650000D01*
X59964286Y-70554762D01*
X59821429Y-70411905D01*
X59726190Y-70364286D01*
X59630952Y-70364286D01*
X59678571Y-70602381D02*
X59583333Y-70554762D01*
X59488095Y-70459524D01*
X59440476Y-70269048D01*
X59440476Y-69935714D01*
X59488095Y-69745238D01*
X59583333Y-69650000D01*
X59678571Y-69602381D01*
X59869048Y-69602381D01*
X59964286Y-69650000D01*
X60059524Y-69745238D01*
X60107143Y-69935714D01*
X60107143Y-70269048D01*
X60059524Y-70459524D01*
X59964286Y-70554762D01*
X59869048Y-70602381D01*
X59678571Y-70602381D01*
X60440476Y-69602381D02*
X61107143Y-69602381D01*
X60678571Y-70602381D01*
X77129762Y-67797619D02*
X77034524Y-67750000D01*
X76939286Y-67654762D01*
X76796429Y-67511905D01*
X76701190Y-67464286D01*
X76605952Y-67464286D01*
X76653571Y-67702381D02*
X76558333Y-67654762D01*
X76463095Y-67559524D01*
X76415476Y-67369048D01*
X76415476Y-67035714D01*
X76463095Y-66845238D01*
X76558333Y-66750000D01*
X76653571Y-66702381D01*
X76844048Y-66702381D01*
X76939286Y-66750000D01*
X77034524Y-66845238D01*
X77082143Y-67035714D01*
X77082143Y-67369048D01*
X77034524Y-67559524D01*
X76939286Y-67654762D01*
X76844048Y-67702381D01*
X76653571Y-67702381D01*
X77653571Y-67130952D02*
X77558333Y-67083333D01*
X77510714Y-67035714D01*
X77463095Y-66940476D01*
X77463095Y-66892857D01*
X77510714Y-66797619D01*
X77558333Y-66750000D01*
X77653571Y-66702381D01*
X77844048Y-66702381D01*
X77939286Y-66750000D01*
X77986905Y-66797619D01*
X78034524Y-66892857D01*
X78034524Y-66940476D01*
X77986905Y-67035714D01*
X77939286Y-67083333D01*
X77844048Y-67130952D01*
X77653571Y-67130952D01*
X77558333Y-67178571D01*
X77510714Y-67226190D01*
X77463095Y-67321429D01*
X77463095Y-67511905D01*
X77510714Y-67607143D01*
X77558333Y-67654762D01*
X77653571Y-67702381D01*
X77844048Y-67702381D01*
X77939286Y-67654762D01*
X77986905Y-67607143D01*
X78034524Y-67511905D01*
X78034524Y-67321429D01*
X77986905Y-67226190D01*
X77939286Y-67178571D01*
X77844048Y-67130952D01*
X72004762Y-82022619D02*
X71909524Y-81975000D01*
X71814286Y-81879762D01*
X71671429Y-81736905D01*
X71576190Y-81689286D01*
X71480952Y-81689286D01*
X71528571Y-81927381D02*
X71433333Y-81879762D01*
X71338095Y-81784524D01*
X71290476Y-81594048D01*
X71290476Y-81260714D01*
X71338095Y-81070238D01*
X71433333Y-80975000D01*
X71528571Y-80927381D01*
X71719048Y-80927381D01*
X71814286Y-80975000D01*
X71909524Y-81070238D01*
X71957143Y-81260714D01*
X71957143Y-81594048D01*
X71909524Y-81784524D01*
X71814286Y-81879762D01*
X71719048Y-81927381D01*
X71528571Y-81927381D01*
X72433333Y-81927381D02*
X72623809Y-81927381D01*
X72719048Y-81879762D01*
X72766667Y-81832143D01*
X72861905Y-81689286D01*
X72909524Y-81498810D01*
X72909524Y-81117857D01*
X72861905Y-81022619D01*
X72814286Y-80975000D01*
X72719048Y-80927381D01*
X72528571Y-80927381D01*
X72433333Y-80975000D01*
X72385714Y-81022619D01*
X72338095Y-81117857D01*
X72338095Y-81355952D01*
X72385714Y-81451190D01*
X72433333Y-81498810D01*
X72528571Y-81546429D01*
X72719048Y-81546429D01*
X72814286Y-81498810D01*
X72861905Y-81451190D01*
X72909524Y-81355952D01*
X80628572Y-67747619D02*
X80533334Y-67700000D01*
X80438096Y-67604762D01*
X80295239Y-67461905D01*
X80200000Y-67414286D01*
X80104762Y-67414286D01*
X80152381Y-67652381D02*
X80057143Y-67604762D01*
X79961905Y-67509524D01*
X79914286Y-67319048D01*
X79914286Y-66985714D01*
X79961905Y-66795238D01*
X80057143Y-66700000D01*
X80152381Y-66652381D01*
X80342858Y-66652381D01*
X80438096Y-66700000D01*
X80533334Y-66795238D01*
X80580953Y-66985714D01*
X80580953Y-67319048D01*
X80533334Y-67509524D01*
X80438096Y-67604762D01*
X80342858Y-67652381D01*
X80152381Y-67652381D01*
X81533334Y-67652381D02*
X80961905Y-67652381D01*
X81247619Y-67652381D02*
X81247619Y-66652381D01*
X81152381Y-66795238D01*
X81057143Y-66890476D01*
X80961905Y-66938095D01*
X82152381Y-66652381D02*
X82247620Y-66652381D01*
X82342858Y-66700000D01*
X82390477Y-66747619D01*
X82438096Y-66842857D01*
X82485715Y-67033333D01*
X82485715Y-67271429D01*
X82438096Y-67461905D01*
X82390477Y-67557143D01*
X82342858Y-67604762D01*
X82247620Y-67652381D01*
X82152381Y-67652381D01*
X82057143Y-67604762D01*
X82009524Y-67557143D01*
X81961905Y-67461905D01*
X81914286Y-67271429D01*
X81914286Y-67033333D01*
X81961905Y-66842857D01*
X82009524Y-66747619D01*
X82057143Y-66700000D01*
X82152381Y-66652381D01*
X77222619Y-77771428D02*
X77175000Y-77866666D01*
X77079762Y-77961904D01*
X76936905Y-78104761D01*
X76889286Y-78200000D01*
X76889286Y-78295238D01*
X77127381Y-78247619D02*
X77079762Y-78342857D01*
X76984524Y-78438095D01*
X76794048Y-78485714D01*
X76460714Y-78485714D01*
X76270238Y-78438095D01*
X76175000Y-78342857D01*
X76127381Y-78247619D01*
X76127381Y-78057142D01*
X76175000Y-77961904D01*
X76270238Y-77866666D01*
X76460714Y-77819047D01*
X76794048Y-77819047D01*
X76984524Y-77866666D01*
X77079762Y-77961904D01*
X77127381Y-78057142D01*
X77127381Y-78247619D01*
X77127381Y-76866666D02*
X77127381Y-77438095D01*
X77127381Y-77152381D02*
X76127381Y-77152381D01*
X76270238Y-77247619D01*
X76365476Y-77342857D01*
X76413095Y-77438095D01*
X77127381Y-75914285D02*
X77127381Y-76485714D01*
X77127381Y-76200000D02*
X76127381Y-76200000D01*
X76270238Y-76295238D01*
X76365476Y-76390476D01*
X76413095Y-76485714D01*
X88078572Y-66697619D02*
X87983334Y-66650000D01*
X87888096Y-66554762D01*
X87745239Y-66411905D01*
X87650000Y-66364286D01*
X87554762Y-66364286D01*
X87602381Y-66602381D02*
X87507143Y-66554762D01*
X87411905Y-66459524D01*
X87364286Y-66269048D01*
X87364286Y-65935714D01*
X87411905Y-65745238D01*
X87507143Y-65650000D01*
X87602381Y-65602381D01*
X87792858Y-65602381D01*
X87888096Y-65650000D01*
X87983334Y-65745238D01*
X88030953Y-65935714D01*
X88030953Y-66269048D01*
X87983334Y-66459524D01*
X87888096Y-66554762D01*
X87792858Y-66602381D01*
X87602381Y-66602381D01*
X88983334Y-66602381D02*
X88411905Y-66602381D01*
X88697619Y-66602381D02*
X88697619Y-65602381D01*
X88602381Y-65745238D01*
X88507143Y-65840476D01*
X88411905Y-65888095D01*
X89364286Y-65697619D02*
X89411905Y-65650000D01*
X89507143Y-65602381D01*
X89745239Y-65602381D01*
X89840477Y-65650000D01*
X89888096Y-65697619D01*
X89935715Y-65792857D01*
X89935715Y-65888095D01*
X89888096Y-66030952D01*
X89316667Y-66602381D01*
X89935715Y-66602381D01*
X95578572Y-73497619D02*
X95483334Y-73450000D01*
X95388096Y-73354762D01*
X95245239Y-73211905D01*
X95150000Y-73164286D01*
X95054762Y-73164286D01*
X95102381Y-73402381D02*
X95007143Y-73354762D01*
X94911905Y-73259524D01*
X94864286Y-73069048D01*
X94864286Y-72735714D01*
X94911905Y-72545238D01*
X95007143Y-72450000D01*
X95102381Y-72402381D01*
X95292858Y-72402381D01*
X95388096Y-72450000D01*
X95483334Y-72545238D01*
X95530953Y-72735714D01*
X95530953Y-73069048D01*
X95483334Y-73259524D01*
X95388096Y-73354762D01*
X95292858Y-73402381D01*
X95102381Y-73402381D01*
X96483334Y-73402381D02*
X95911905Y-73402381D01*
X96197619Y-73402381D02*
X96197619Y-72402381D01*
X96102381Y-72545238D01*
X96007143Y-72640476D01*
X95911905Y-72688095D01*
X96816667Y-72402381D02*
X97435715Y-72402381D01*
X97102381Y-72783333D01*
X97245239Y-72783333D01*
X97340477Y-72830952D01*
X97388096Y-72878571D01*
X97435715Y-72973810D01*
X97435715Y-73211905D01*
X97388096Y-73307143D01*
X97340477Y-73354762D01*
X97245239Y-73402381D01*
X96959524Y-73402381D01*
X96864286Y-73354762D01*
X96816667Y-73307143D01*
X86078572Y-81447619D02*
X85983334Y-81400000D01*
X85888096Y-81304762D01*
X85745239Y-81161905D01*
X85650000Y-81114286D01*
X85554762Y-81114286D01*
X85602381Y-81352381D02*
X85507143Y-81304762D01*
X85411905Y-81209524D01*
X85364286Y-81019048D01*
X85364286Y-80685714D01*
X85411905Y-80495238D01*
X85507143Y-80400000D01*
X85602381Y-80352381D01*
X85792858Y-80352381D01*
X85888096Y-80400000D01*
X85983334Y-80495238D01*
X86030953Y-80685714D01*
X86030953Y-81019048D01*
X85983334Y-81209524D01*
X85888096Y-81304762D01*
X85792858Y-81352381D01*
X85602381Y-81352381D01*
X86983334Y-81352381D02*
X86411905Y-81352381D01*
X86697619Y-81352381D02*
X86697619Y-80352381D01*
X86602381Y-80495238D01*
X86507143Y-80590476D01*
X86411905Y-80638095D01*
X87840477Y-80685714D02*
X87840477Y-81352381D01*
X87602381Y-80304762D02*
X87364286Y-81019048D01*
X87983334Y-81019048D01*
X92428572Y-83047619D02*
X92333334Y-83000000D01*
X92238096Y-82904762D01*
X92095239Y-82761905D01*
X92000000Y-82714286D01*
X91904762Y-82714286D01*
X91952381Y-82952381D02*
X91857143Y-82904762D01*
X91761905Y-82809524D01*
X91714286Y-82619048D01*
X91714286Y-82285714D01*
X91761905Y-82095238D01*
X91857143Y-82000000D01*
X91952381Y-81952381D01*
X92142858Y-81952381D01*
X92238096Y-82000000D01*
X92333334Y-82095238D01*
X92380953Y-82285714D01*
X92380953Y-82619048D01*
X92333334Y-82809524D01*
X92238096Y-82904762D01*
X92142858Y-82952381D01*
X91952381Y-82952381D01*
X93333334Y-82952381D02*
X92761905Y-82952381D01*
X93047619Y-82952381D02*
X93047619Y-81952381D01*
X92952381Y-82095238D01*
X92857143Y-82190476D01*
X92761905Y-82238095D01*
X94238096Y-81952381D02*
X93761905Y-81952381D01*
X93714286Y-82428571D01*
X93761905Y-82380952D01*
X93857143Y-82333333D01*
X94095239Y-82333333D01*
X94190477Y-82380952D01*
X94238096Y-82428571D01*
X94285715Y-82523810D01*
X94285715Y-82761905D01*
X94238096Y-82857143D01*
X94190477Y-82904762D01*
X94095239Y-82952381D01*
X93857143Y-82952381D01*
X93761905Y-82904762D01*
X93714286Y-82857143D01*
X78022619Y-79696428D02*
X77975000Y-79791666D01*
X77879762Y-79886904D01*
X77736905Y-80029761D01*
X77689286Y-80125000D01*
X77689286Y-80220238D01*
X77927381Y-80172619D02*
X77879762Y-80267857D01*
X77784524Y-80363095D01*
X77594048Y-80410714D01*
X77260714Y-80410714D01*
X77070238Y-80363095D01*
X76975000Y-80267857D01*
X76927381Y-80172619D01*
X76927381Y-79982142D01*
X76975000Y-79886904D01*
X77070238Y-79791666D01*
X77260714Y-79744047D01*
X77594048Y-79744047D01*
X77784524Y-79791666D01*
X77879762Y-79886904D01*
X77927381Y-79982142D01*
X77927381Y-80172619D01*
X77927381Y-78791666D02*
X77927381Y-79363095D01*
X77927381Y-79077381D02*
X76927381Y-79077381D01*
X77070238Y-79172619D01*
X77165476Y-79267857D01*
X77213095Y-79363095D01*
X76927381Y-77934523D02*
X76927381Y-78125000D01*
X76975000Y-78220238D01*
X77022619Y-78267857D01*
X77165476Y-78363095D01*
X77355952Y-78410714D01*
X77736905Y-78410714D01*
X77832143Y-78363095D01*
X77879762Y-78315476D01*
X77927381Y-78220238D01*
X77927381Y-78029761D01*
X77879762Y-77934523D01*
X77832143Y-77886904D01*
X77736905Y-77839285D01*
X77498810Y-77839285D01*
X77403571Y-77886904D01*
X77355952Y-77934523D01*
X77308333Y-78029761D01*
X77308333Y-78220238D01*
X77355952Y-78315476D01*
X77403571Y-78363095D01*
X77498810Y-78410714D01*
X59577381Y-74245238D02*
X59101190Y-74578572D01*
X59577381Y-74816667D02*
X58577381Y-74816667D01*
X58577381Y-74435714D01*
X58625000Y-74340476D01*
X58672619Y-74292857D01*
X58767857Y-74245238D01*
X58910714Y-74245238D01*
X59005952Y-74292857D01*
X59053571Y-74340476D01*
X59101190Y-74435714D01*
X59101190Y-74816667D01*
X58577381Y-73959524D02*
X59577381Y-73626191D01*
X58577381Y-73292857D01*
X59577381Y-72435714D02*
X59577381Y-73007143D01*
X59577381Y-72721429D02*
X58577381Y-72721429D01*
X58720238Y-72816667D01*
X58815476Y-72911905D01*
X58863095Y-73007143D01*
X88952381Y-74195238D02*
X88476190Y-74528572D01*
X88952381Y-74766667D02*
X87952381Y-74766667D01*
X87952381Y-74385714D01*
X88000000Y-74290476D01*
X88047619Y-74242857D01*
X88142857Y-74195238D01*
X88285714Y-74195238D01*
X88380952Y-74242857D01*
X88428571Y-74290476D01*
X88476190Y-74385714D01*
X88476190Y-74766667D01*
X87952381Y-73909524D02*
X88952381Y-73576191D01*
X87952381Y-73242857D01*
X88047619Y-72957143D02*
X88000000Y-72909524D01*
X87952381Y-72814286D01*
X87952381Y-72576190D01*
X88000000Y-72480952D01*
X88047619Y-72433333D01*
X88142857Y-72385714D01*
X88238095Y-72385714D01*
X88380952Y-72433333D01*
X88952381Y-73004762D01*
X88952381Y-72385714D01*
X70808334Y-61177381D02*
X70475000Y-60701190D01*
X70236905Y-61177381D02*
X70236905Y-60177381D01*
X70617858Y-60177381D01*
X70713096Y-60225000D01*
X70760715Y-60272619D01*
X70808334Y-60367857D01*
X70808334Y-60510714D01*
X70760715Y-60605952D01*
X70713096Y-60653571D01*
X70617858Y-60701190D01*
X70236905Y-60701190D01*
X71760715Y-61177381D02*
X71189286Y-61177381D01*
X71475000Y-61177381D02*
X71475000Y-60177381D01*
X71379762Y-60320238D01*
X71284524Y-60415476D01*
X71189286Y-60463095D01*
X65033334Y-82952381D02*
X64700000Y-82476190D01*
X64461905Y-82952381D02*
X64461905Y-81952381D01*
X64842858Y-81952381D01*
X64938096Y-82000000D01*
X64985715Y-82047619D01*
X65033334Y-82142857D01*
X65033334Y-82285714D01*
X64985715Y-82380952D01*
X64938096Y-82428571D01*
X64842858Y-82476190D01*
X64461905Y-82476190D01*
X65414286Y-82047619D02*
X65461905Y-82000000D01*
X65557143Y-81952381D01*
X65795239Y-81952381D01*
X65890477Y-82000000D01*
X65938096Y-82047619D01*
X65985715Y-82142857D01*
X65985715Y-82238095D01*
X65938096Y-82380952D01*
X65366667Y-82952381D01*
X65985715Y-82952381D01*
X61302381Y-59241666D02*
X60826190Y-59575000D01*
X61302381Y-59813095D02*
X60302381Y-59813095D01*
X60302381Y-59432142D01*
X60350000Y-59336904D01*
X60397619Y-59289285D01*
X60492857Y-59241666D01*
X60635714Y-59241666D01*
X60730952Y-59289285D01*
X60778571Y-59336904D01*
X60826190Y-59432142D01*
X60826190Y-59813095D01*
X60302381Y-58908333D02*
X60302381Y-58289285D01*
X60683333Y-58622619D01*
X60683333Y-58479761D01*
X60730952Y-58384523D01*
X60778571Y-58336904D01*
X60873810Y-58289285D01*
X61111905Y-58289285D01*
X61207143Y-58336904D01*
X61254762Y-58384523D01*
X61302381Y-58479761D01*
X61302381Y-58765476D01*
X61254762Y-58860714D01*
X61207143Y-58908333D01*
X78777381Y-60841666D02*
X78301190Y-61175000D01*
X78777381Y-61413095D02*
X77777381Y-61413095D01*
X77777381Y-61032142D01*
X77825000Y-60936904D01*
X77872619Y-60889285D01*
X77967857Y-60841666D01*
X78110714Y-60841666D01*
X78205952Y-60889285D01*
X78253571Y-60936904D01*
X78301190Y-61032142D01*
X78301190Y-61413095D01*
X77777381Y-59936904D02*
X77777381Y-60413095D01*
X78253571Y-60460714D01*
X78205952Y-60413095D01*
X78158333Y-60317857D01*
X78158333Y-60079761D01*
X78205952Y-59984523D01*
X78253571Y-59936904D01*
X78348810Y-59889285D01*
X78586905Y-59889285D01*
X78682143Y-59936904D01*
X78729762Y-59984523D01*
X78777381Y-60079761D01*
X78777381Y-60317857D01*
X78729762Y-60413095D01*
X78682143Y-60460714D01*
X75933334Y-68702381D02*
X75600000Y-68226190D01*
X75361905Y-68702381D02*
X75361905Y-67702381D01*
X75742858Y-67702381D01*
X75838096Y-67750000D01*
X75885715Y-67797619D01*
X75933334Y-67892857D01*
X75933334Y-68035714D01*
X75885715Y-68130952D01*
X75838096Y-68178571D01*
X75742858Y-68226190D01*
X75361905Y-68226190D01*
X76790477Y-67702381D02*
X76600000Y-67702381D01*
X76504762Y-67750000D01*
X76457143Y-67797619D01*
X76361905Y-67940476D01*
X76314286Y-68130952D01*
X76314286Y-68511905D01*
X76361905Y-68607143D01*
X76409524Y-68654762D01*
X76504762Y-68702381D01*
X76695239Y-68702381D01*
X76790477Y-68654762D01*
X76838096Y-68607143D01*
X76885715Y-68511905D01*
X76885715Y-68273810D01*
X76838096Y-68178571D01*
X76790477Y-68130952D01*
X76695239Y-68083333D01*
X76504762Y-68083333D01*
X76409524Y-68130952D01*
X76361905Y-68178571D01*
X76314286Y-68273810D01*
X72483334Y-69727381D02*
X72150000Y-69251190D01*
X71911905Y-69727381D02*
X71911905Y-68727381D01*
X72292858Y-68727381D01*
X72388096Y-68775000D01*
X72435715Y-68822619D01*
X72483334Y-68917857D01*
X72483334Y-69060714D01*
X72435715Y-69155952D01*
X72388096Y-69203571D01*
X72292858Y-69251190D01*
X71911905Y-69251190D01*
X72816667Y-68727381D02*
X73483334Y-68727381D01*
X73054762Y-69727381D01*
X82102381Y-60716666D02*
X81626190Y-61050000D01*
X82102381Y-61288095D02*
X81102381Y-61288095D01*
X81102381Y-60907142D01*
X81150000Y-60811904D01*
X81197619Y-60764285D01*
X81292857Y-60716666D01*
X81435714Y-60716666D01*
X81530952Y-60764285D01*
X81578571Y-60811904D01*
X81626190Y-60907142D01*
X81626190Y-61288095D01*
X81530952Y-60145238D02*
X81483333Y-60240476D01*
X81435714Y-60288095D01*
X81340476Y-60335714D01*
X81292857Y-60335714D01*
X81197619Y-60288095D01*
X81150000Y-60240476D01*
X81102381Y-60145238D01*
X81102381Y-59954761D01*
X81150000Y-59859523D01*
X81197619Y-59811904D01*
X81292857Y-59764285D01*
X81340476Y-59764285D01*
X81435714Y-59811904D01*
X81483333Y-59859523D01*
X81530952Y-59954761D01*
X81530952Y-60145238D01*
X81578571Y-60240476D01*
X81626190Y-60288095D01*
X81721429Y-60335714D01*
X81911905Y-60335714D01*
X82007143Y-60288095D01*
X82054762Y-60240476D01*
X82102381Y-60145238D01*
X82102381Y-59954761D01*
X82054762Y-59859523D01*
X82007143Y-59811904D01*
X81911905Y-59764285D01*
X81721429Y-59764285D01*
X81626190Y-59811904D01*
X81578571Y-59859523D01*
X81530952Y-59954761D01*
X84708334Y-63827381D02*
X84375000Y-63351190D01*
X84136905Y-63827381D02*
X84136905Y-62827381D01*
X84517858Y-62827381D01*
X84613096Y-62875000D01*
X84660715Y-62922619D01*
X84708334Y-63017857D01*
X84708334Y-63160714D01*
X84660715Y-63255952D01*
X84613096Y-63303571D01*
X84517858Y-63351190D01*
X84136905Y-63351190D01*
X85184524Y-63827381D02*
X85375000Y-63827381D01*
X85470239Y-63779762D01*
X85517858Y-63732143D01*
X85613096Y-63589286D01*
X85660715Y-63398810D01*
X85660715Y-63017857D01*
X85613096Y-62922619D01*
X85565477Y-62875000D01*
X85470239Y-62827381D01*
X85279762Y-62827381D01*
X85184524Y-62875000D01*
X85136905Y-62922619D01*
X85089286Y-63017857D01*
X85089286Y-63255952D01*
X85136905Y-63351190D01*
X85184524Y-63398810D01*
X85279762Y-63446429D01*
X85470239Y-63446429D01*
X85565477Y-63398810D01*
X85613096Y-63351190D01*
X85660715Y-63255952D01*
X81552381Y-70042857D02*
X81076190Y-70376191D01*
X81552381Y-70614286D02*
X80552381Y-70614286D01*
X80552381Y-70233333D01*
X80600000Y-70138095D01*
X80647619Y-70090476D01*
X80742857Y-70042857D01*
X80885714Y-70042857D01*
X80980952Y-70090476D01*
X81028571Y-70138095D01*
X81076190Y-70233333D01*
X81076190Y-70614286D01*
X81552381Y-69090476D02*
X81552381Y-69661905D01*
X81552381Y-69376191D02*
X80552381Y-69376191D01*
X80695238Y-69471429D01*
X80790476Y-69566667D01*
X80838095Y-69661905D01*
X80552381Y-68471429D02*
X80552381Y-68376190D01*
X80600000Y-68280952D01*
X80647619Y-68233333D01*
X80742857Y-68185714D01*
X80933333Y-68138095D01*
X81171429Y-68138095D01*
X81361905Y-68185714D01*
X81457143Y-68233333D01*
X81504762Y-68280952D01*
X81552381Y-68376190D01*
X81552381Y-68471429D01*
X81504762Y-68566667D01*
X81457143Y-68614286D01*
X81361905Y-68661905D01*
X81171429Y-68709524D01*
X80933333Y-68709524D01*
X80742857Y-68661905D01*
X80647619Y-68614286D01*
X80600000Y-68566667D01*
X80552381Y-68471429D01*
X91032143Y-77852381D02*
X90698809Y-77376190D01*
X90460714Y-77852381D02*
X90460714Y-76852381D01*
X90841667Y-76852381D01*
X90936905Y-76900000D01*
X90984524Y-76947619D01*
X91032143Y-77042857D01*
X91032143Y-77185714D01*
X90984524Y-77280952D01*
X90936905Y-77328571D01*
X90841667Y-77376190D01*
X90460714Y-77376190D01*
X91984524Y-77852381D02*
X91413095Y-77852381D01*
X91698809Y-77852381D02*
X91698809Y-76852381D01*
X91603571Y-76995238D01*
X91508333Y-77090476D01*
X91413095Y-77138095D01*
X92936905Y-77852381D02*
X92365476Y-77852381D01*
X92651190Y-77852381D02*
X92651190Y-76852381D01*
X92555952Y-76995238D01*
X92460714Y-77090476D01*
X92365476Y-77138095D01*
X91127381Y-80092857D02*
X90651190Y-80426191D01*
X91127381Y-80664286D02*
X90127381Y-80664286D01*
X90127381Y-80283333D01*
X90175000Y-80188095D01*
X90222619Y-80140476D01*
X90317857Y-80092857D01*
X90460714Y-80092857D01*
X90555952Y-80140476D01*
X90603571Y-80188095D01*
X90651190Y-80283333D01*
X90651190Y-80664286D01*
X91127381Y-79140476D02*
X91127381Y-79711905D01*
X91127381Y-79426191D02*
X90127381Y-79426191D01*
X90270238Y-79521429D01*
X90365476Y-79616667D01*
X90413095Y-79711905D01*
X90222619Y-78759524D02*
X90175000Y-78711905D01*
X90127381Y-78616667D01*
X90127381Y-78378571D01*
X90175000Y-78283333D01*
X90222619Y-78235714D01*
X90317857Y-78188095D01*
X90413095Y-78188095D01*
X90555952Y-78235714D01*
X91127381Y-78807143D01*
X91127381Y-78188095D01*
X82657143Y-82052381D02*
X82323809Y-81576190D01*
X82085714Y-82052381D02*
X82085714Y-81052381D01*
X82466667Y-81052381D01*
X82561905Y-81100000D01*
X82609524Y-81147619D01*
X82657143Y-81242857D01*
X82657143Y-81385714D01*
X82609524Y-81480952D01*
X82561905Y-81528571D01*
X82466667Y-81576190D01*
X82085714Y-81576190D01*
X83609524Y-82052381D02*
X83038095Y-82052381D01*
X83323809Y-82052381D02*
X83323809Y-81052381D01*
X83228571Y-81195238D01*
X83133333Y-81290476D01*
X83038095Y-81338095D01*
X83942857Y-81052381D02*
X84561905Y-81052381D01*
X84228571Y-81433333D01*
X84371429Y-81433333D01*
X84466667Y-81480952D01*
X84514286Y-81528571D01*
X84561905Y-81623810D01*
X84561905Y-81861905D01*
X84514286Y-81957143D01*
X84466667Y-82004762D01*
X84371429Y-82052381D01*
X84085714Y-82052381D01*
X83990476Y-82004762D01*
X83942857Y-81957143D01*
X57577381Y-68088095D02*
X56577381Y-68088095D01*
X56577381Y-67850000D01*
X56625000Y-67707142D01*
X56720238Y-67611904D01*
X56815476Y-67564285D01*
X57005952Y-67516666D01*
X57148810Y-67516666D01*
X57339286Y-67564285D01*
X57434524Y-67611904D01*
X57529762Y-67707142D01*
X57577381Y-67850000D01*
X57577381Y-68088095D01*
X56577381Y-66611904D02*
X56577381Y-67088095D01*
X57053571Y-67135714D01*
X57005952Y-67088095D01*
X56958333Y-66992857D01*
X56958333Y-66754761D01*
X57005952Y-66659523D01*
X57053571Y-66611904D01*
X57148810Y-66564285D01*
X57386905Y-66564285D01*
X57482143Y-66611904D01*
X57529762Y-66659523D01*
X57577381Y-66754761D01*
X57577381Y-66992857D01*
X57529762Y-67088095D01*
X57482143Y-67135714D01*
X74983334Y-82577381D02*
X74650000Y-82101190D01*
X74411905Y-82577381D02*
X74411905Y-81577381D01*
X74792858Y-81577381D01*
X74888096Y-81625000D01*
X74935715Y-81672619D01*
X74983334Y-81767857D01*
X74983334Y-81910714D01*
X74935715Y-82005952D01*
X74888096Y-82053571D01*
X74792858Y-82101190D01*
X74411905Y-82101190D01*
X75840477Y-81910714D02*
X75840477Y-82577381D01*
X75602381Y-81529762D02*
X75364286Y-82244048D01*
X75983334Y-82244048D01*
X57666667Y-76122381D02*
X57666667Y-76836667D01*
X57619047Y-76979524D01*
X57523809Y-77074762D01*
X57380952Y-77122381D01*
X57285714Y-77122381D01*
X58095238Y-76217619D02*
X58142857Y-76170000D01*
X58238095Y-76122381D01*
X58476191Y-76122381D01*
X58571429Y-76170000D01*
X58619048Y-76217619D01*
X58666667Y-76312857D01*
X58666667Y-76408095D01*
X58619048Y-76550952D01*
X58047619Y-77122381D01*
X58666667Y-77122381D01*
X57566667Y-63652381D02*
X57566667Y-64366667D01*
X57519047Y-64509524D01*
X57423809Y-64604762D01*
X57280952Y-64652381D01*
X57185714Y-64652381D01*
X57947619Y-63652381D02*
X58566667Y-63652381D01*
X58233333Y-64033333D01*
X58376191Y-64033333D01*
X58471429Y-64080952D01*
X58519048Y-64128571D01*
X58566667Y-64223810D01*
X58566667Y-64461905D01*
X58519048Y-64557143D01*
X58471429Y-64604762D01*
X58376191Y-64652381D01*
X58090476Y-64652381D01*
X57995238Y-64604762D01*
X57947619Y-64557143D01*
M02*
