G04 #@! TF.FileFunction,Copper,L1,Top,Signal*
%FSLAX46Y46*%
G04 Gerber Fmt 4.6, Leading zero omitted, Abs format (unit mm)*
G04 Created by KiCad (PCBNEW 4.0.7) date 05/23/21 23:18:31*
%MOMM*%
%LPD*%
G01*
G04 APERTURE LIST*
%ADD10C,0.100000*%
%ADD11R,1.700000X1.700000*%
%ADD12O,1.700000X1.700000*%
%ADD13R,1.800000X1.800000*%
%ADD14O,1.800000X1.800000*%
%ADD15R,0.800000X0.900000*%
%ADD16R,1.250000X1.500000*%
%ADD17R,1.500000X1.250000*%
%ADD18R,0.900000X0.800000*%
%ADD19C,1.440000*%
%ADD20R,1.500000X1.300000*%
%ADD21R,1.300000X1.500000*%
%ADD22C,1.520000*%
%ADD23R,1.520000X1.520000*%
%ADD24R,1.700000X2.000000*%
%ADD25C,0.600000*%
%ADD26C,0.350000*%
%ADD27C,1.000000*%
%ADD28C,0.500000*%
G04 APERTURE END LIST*
D10*
D11*
X53000000Y-65500000D03*
D12*
X53000000Y-68040000D03*
X53000000Y-70580000D03*
X53000000Y-73120000D03*
X53000000Y-75660000D03*
X53000000Y-78200000D03*
X53000000Y-80740000D03*
D13*
X74260000Y-87560000D03*
D14*
X71720000Y-87560000D03*
X69180000Y-87560000D03*
D15*
X67825000Y-61100000D03*
X65925000Y-61100000D03*
X66875000Y-63100000D03*
D16*
X92200000Y-59000000D03*
X92200000Y-61500000D03*
D17*
X94150000Y-61700000D03*
X96650000Y-61700000D03*
D16*
X96800000Y-63750000D03*
X96800000Y-66250000D03*
X96800000Y-68600000D03*
X96800000Y-71100000D03*
D17*
X93000000Y-72150000D03*
X90500000Y-72150000D03*
D16*
X91700000Y-67300000D03*
X91700000Y-69800000D03*
D18*
X71025000Y-72900000D03*
X71025000Y-74800000D03*
X73025000Y-73850000D03*
D15*
X69225000Y-77950000D03*
X67325000Y-77950000D03*
X68275000Y-79950000D03*
X66000000Y-66800000D03*
X67900000Y-66800000D03*
X66950000Y-64800000D03*
X61000000Y-79880000D03*
X62900000Y-79880000D03*
X61950000Y-77880000D03*
X64175000Y-61150000D03*
X62275000Y-61150000D03*
X63225000Y-63150000D03*
X62300000Y-66850000D03*
X64200000Y-66850000D03*
X63250000Y-64850000D03*
X71400000Y-66700000D03*
X73300000Y-66700000D03*
X72350000Y-64700000D03*
D18*
X71175000Y-77925000D03*
X71175000Y-79825000D03*
X73175000Y-78875000D03*
D15*
X78500000Y-64700000D03*
X76600000Y-64700000D03*
X77550000Y-66700000D03*
D18*
X74775000Y-72925000D03*
X74775000Y-74825000D03*
X76775000Y-73875000D03*
X95150000Y-74500000D03*
X95150000Y-76400000D03*
X97150000Y-75450000D03*
X87510000Y-77700000D03*
X87510000Y-79600000D03*
X89510000Y-78650000D03*
X92150000Y-78975000D03*
X92150000Y-80875000D03*
X94150000Y-79925000D03*
X80520000Y-80180000D03*
X80520000Y-78280000D03*
X78520000Y-79230000D03*
D19*
X62300000Y-73900000D03*
X64840000Y-73900000D03*
X67380000Y-73900000D03*
X80300000Y-73500000D03*
X82840000Y-73500000D03*
X85380000Y-73500000D03*
D20*
X70400000Y-59050000D03*
X67700000Y-59050000D03*
D21*
X65100000Y-77825000D03*
X65100000Y-80525000D03*
D20*
X65275000Y-59075000D03*
X62575000Y-59075000D03*
D21*
X79500000Y-60100000D03*
X79500000Y-62800000D03*
D20*
X71250000Y-68550000D03*
X73950000Y-68550000D03*
X73850000Y-70825000D03*
X71150000Y-70825000D03*
D21*
X76250000Y-60200000D03*
X76250000Y-62900000D03*
D20*
X80800000Y-66750000D03*
X83500000Y-66750000D03*
X81150000Y-69800000D03*
X83850000Y-69800000D03*
X93025000Y-75700000D03*
X90325000Y-75700000D03*
D15*
X60450000Y-66475000D03*
X58550000Y-66475000D03*
X59500000Y-68475000D03*
D21*
X75000000Y-77600000D03*
X75000000Y-80300000D03*
D11*
X57500000Y-79000000D03*
D12*
X57500000Y-81540000D03*
D11*
X57500000Y-59000000D03*
D12*
X57500000Y-61540000D03*
D20*
X66150000Y-70150000D03*
X68850000Y-70150000D03*
X61000000Y-70150000D03*
X63700000Y-70150000D03*
D22*
X88130000Y-65590000D03*
X88130000Y-63050000D03*
D23*
X88130000Y-68130000D03*
D13*
X97028000Y-87122000D03*
D14*
X94488000Y-87122000D03*
X91948000Y-87122000D03*
D24*
X85400000Y-82200000D03*
X85400000Y-78200000D03*
X82570000Y-78190000D03*
X82570000Y-82190000D03*
D25*
X100140000Y-90870000D03*
X100140000Y-89820000D03*
X99750000Y-75470000D03*
X100000000Y-80000000D03*
X79250000Y-58750000D03*
X76100000Y-58750000D03*
X70000000Y-67300000D03*
X64700000Y-57750000D03*
X72100000Y-58050000D03*
X90300000Y-58600000D03*
X93700000Y-58500000D03*
X78580000Y-80350000D03*
X79180000Y-78230000D03*
X89610000Y-79630000D03*
X89540000Y-77600000D03*
X72450000Y-70750000D03*
X73400000Y-81000000D03*
X95700000Y-71450000D03*
X96550000Y-72350000D03*
X66400000Y-81550000D03*
X68250000Y-81200000D03*
X69850000Y-81000000D03*
D26*
X89575000Y-70025000D02*
X89575000Y-70400000D01*
D27*
X95460000Y-89790000D02*
X95460000Y-90770000D01*
X95560000Y-90870000D02*
X100140000Y-90870000D01*
X95460000Y-90770000D02*
X95560000Y-90870000D01*
X94488000Y-87122000D02*
X95460000Y-89790000D01*
X95490000Y-89820000D02*
X100140000Y-89820000D01*
X95460000Y-89790000D02*
X95490000Y-89820000D01*
D28*
X97150000Y-75450000D02*
X99730000Y-75450000D01*
X99730000Y-75450000D02*
X99750000Y-75470000D01*
X94150000Y-79925000D02*
X99925000Y-79925000D01*
X99925000Y-79925000D02*
X100000000Y-80000000D01*
D26*
X79500000Y-60100000D02*
X79500000Y-59000000D01*
X79500000Y-59000000D02*
X79250000Y-58750000D01*
X76250000Y-60200000D02*
X76250000Y-58900000D01*
X76250000Y-58900000D02*
X76100000Y-58750000D01*
X71250000Y-68550000D02*
X70000000Y-67300000D01*
X65275000Y-59075000D02*
X65275000Y-58325000D01*
X65275000Y-58325000D02*
X64700000Y-57750000D01*
X70400000Y-59050000D02*
X71100000Y-59050000D01*
X71100000Y-59050000D02*
X72100000Y-58050000D01*
X92200000Y-59000000D02*
X90700000Y-59000000D01*
X90700000Y-59000000D02*
X90300000Y-58600000D01*
X92200000Y-59000000D02*
X93200000Y-59000000D01*
X93200000Y-59000000D02*
X93700000Y-58500000D01*
X65275000Y-59075000D02*
X65025000Y-59075000D01*
X65275000Y-59075000D02*
X65275000Y-58700000D01*
X65275000Y-58700000D02*
X66150000Y-57825000D01*
X66150000Y-57825000D02*
X69175000Y-57825000D01*
X69175000Y-57825000D02*
X70400000Y-59050000D01*
X70900000Y-59550000D02*
X70400000Y-59050000D01*
X94150000Y-61700000D02*
X92400000Y-61700000D01*
X92400000Y-61700000D02*
X92200000Y-61500000D01*
X96650000Y-61700000D02*
X96650000Y-63600000D01*
X96650000Y-63600000D02*
X96800000Y-63750000D01*
X96800000Y-66250000D02*
X96800000Y-68600000D01*
X78520000Y-79230000D02*
X78520000Y-80290000D01*
X78520000Y-80290000D02*
X78580000Y-80350000D01*
X78520000Y-79230000D02*
X78520000Y-78890000D01*
X78520000Y-78890000D02*
X79180000Y-78230000D01*
X89510000Y-78650000D02*
X89510000Y-79530000D01*
X89510000Y-79530000D02*
X89610000Y-79630000D01*
X89510000Y-78650000D02*
X89510000Y-77630000D01*
X89510000Y-77630000D02*
X89540000Y-77600000D01*
X72350000Y-64700000D02*
X72350000Y-67100000D01*
X72450000Y-67200000D02*
X72450000Y-70750000D01*
X72350000Y-67100000D02*
X72450000Y-67200000D01*
X75000000Y-80300000D02*
X74100000Y-80300000D01*
X74100000Y-80300000D02*
X73400000Y-81000000D01*
X96800000Y-71100000D02*
X96050000Y-71100000D01*
X96050000Y-71100000D02*
X95700000Y-71450000D01*
X96800000Y-71100000D02*
X96800000Y-72100000D01*
X96800000Y-72100000D02*
X96550000Y-72350000D01*
X65100000Y-80525000D02*
X65375000Y-80525000D01*
X65375000Y-80525000D02*
X66400000Y-81550000D01*
X68275000Y-79950000D02*
X68275000Y-81175000D01*
X68275000Y-81175000D02*
X68250000Y-81200000D01*
X71175000Y-79825000D02*
X71025000Y-79825000D01*
X71025000Y-79825000D02*
X69850000Y-81000000D01*
X75000000Y-80300000D02*
X71650000Y-80300000D01*
X71650000Y-80300000D02*
X71175000Y-79825000D01*
X65100000Y-80525000D02*
X67700000Y-80525000D01*
X67700000Y-80525000D02*
X68275000Y-79950000D01*
X71175000Y-79825000D02*
X68400000Y-79825000D01*
X68400000Y-79825000D02*
X68275000Y-79950000D01*
X89920000Y-66220000D02*
X89920000Y-64840000D01*
X89920000Y-64840000D02*
X88130000Y-63050000D01*
X80800000Y-66750000D02*
X80800000Y-64830000D01*
X80800000Y-64830000D02*
X82580000Y-63050000D01*
X82580000Y-63050000D02*
X88130000Y-63050000D01*
X93000000Y-72150000D02*
X93000000Y-68940000D01*
X93000000Y-68940000D02*
X92620000Y-68560000D01*
X92620000Y-68560000D02*
X90330000Y-68560000D01*
X90330000Y-68560000D02*
X89920000Y-68150000D01*
X89920000Y-68150000D02*
X89920000Y-66220000D01*
X89920000Y-66220000D02*
X89920000Y-65460000D01*
X77550000Y-66700000D02*
X80750000Y-66700000D01*
X80750000Y-66700000D02*
X80800000Y-66750000D01*
X93000000Y-72150000D02*
X93250000Y-72150000D01*
X93250000Y-72150000D02*
X93400000Y-72000000D01*
X93000000Y-72150000D02*
X93000000Y-72000000D01*
X77600000Y-66750000D02*
X77550000Y-66700000D01*
X77600000Y-66750000D02*
X77550000Y-66700000D01*
X93000000Y-72150000D02*
X93000000Y-72350000D01*
X93000000Y-72350000D02*
X95150000Y-74500000D01*
X88130000Y-68130000D02*
X88100000Y-69750000D01*
X88100000Y-69750000D02*
X90500000Y-72150000D01*
X85500000Y-73380000D02*
X85380000Y-73500000D01*
X87510000Y-77700000D02*
X87510000Y-75630000D01*
X87510000Y-75630000D02*
X85380000Y-73500000D01*
X85380000Y-73500000D02*
X82840000Y-73500000D01*
X85380000Y-73500000D02*
X89150000Y-73500000D01*
X89150000Y-73500000D02*
X90500000Y-72150000D01*
X85300000Y-73580000D02*
X85380000Y-73500000D01*
X82840000Y-73500000D02*
X82840000Y-73660000D01*
X82840000Y-73660000D02*
X81500000Y-75000000D01*
X81500000Y-75000000D02*
X77900000Y-75000000D01*
X77900000Y-75000000D02*
X76775000Y-73875000D01*
X85300000Y-73580000D02*
X85380000Y-73500000D01*
X76775000Y-74025000D02*
X76775000Y-73875000D01*
X85175000Y-73705000D02*
X85380000Y-73500000D01*
X76775000Y-73875000D02*
X76775000Y-73950000D01*
X91700000Y-64770000D02*
X91700000Y-64268000D01*
X71400000Y-62650000D02*
X72520000Y-61530000D01*
X71400000Y-62650000D02*
X71400000Y-66700000D01*
X72582000Y-61468000D02*
X72520000Y-61530000D01*
X88900000Y-61468000D02*
X72582000Y-61468000D01*
X91700000Y-64268000D02*
X88900000Y-61468000D01*
X91700000Y-64510000D02*
X91700000Y-64770000D01*
X91700000Y-64770000D02*
X91700000Y-67300000D01*
X66950000Y-64800000D02*
X68450000Y-64800000D01*
X68450000Y-64800000D02*
X69450000Y-65800000D01*
X69450000Y-65800000D02*
X70500000Y-65800000D01*
X70600000Y-65900000D02*
X71400000Y-66700000D01*
X70500000Y-65800000D02*
X70600000Y-65900000D01*
X66875000Y-63100000D02*
X66875000Y-64725000D01*
X66875000Y-64725000D02*
X66950000Y-64800000D01*
X66725000Y-63250000D02*
X66875000Y-63100000D01*
X93130000Y-82804000D02*
X93130000Y-83224000D01*
X97028000Y-84836000D02*
X97028000Y-87122000D01*
X96520000Y-84328000D02*
X97028000Y-84836000D01*
X94234000Y-84328000D02*
X96520000Y-84328000D01*
X93130000Y-83224000D02*
X94234000Y-84328000D01*
X93130000Y-82930000D02*
X93130000Y-82804000D01*
X93130000Y-82804000D02*
X93130000Y-75805000D01*
X93130000Y-75805000D02*
X93025000Y-75700000D01*
X91700000Y-69800000D02*
X91700000Y-74375000D01*
X91700000Y-74375000D02*
X93025000Y-75700000D01*
X95150000Y-76400000D02*
X93725000Y-76400000D01*
X93725000Y-76400000D02*
X93025000Y-75700000D01*
X92150000Y-78975000D02*
X92150000Y-76575000D01*
X92150000Y-76575000D02*
X93025000Y-75700000D01*
X73175000Y-78875000D02*
X75825000Y-78875000D01*
X75750000Y-73900000D02*
X74775000Y-72925000D01*
X75750000Y-75125000D02*
X75750000Y-73900000D01*
X76250000Y-75625000D02*
X75750000Y-75125000D01*
X76250000Y-78450000D02*
X76250000Y-75625000D01*
X75825000Y-78875000D02*
X76250000Y-78450000D01*
X61000000Y-79880000D02*
X61200000Y-79880000D01*
X61200000Y-79880000D02*
X62025000Y-81100000D01*
X62025000Y-81100000D02*
X63150000Y-81100000D01*
X63150000Y-81100000D02*
X63875000Y-80375000D01*
X63875000Y-80375000D02*
X63875000Y-79600000D01*
X63875000Y-79600000D02*
X64250000Y-79225000D01*
X64250000Y-79225000D02*
X66600000Y-79225000D01*
X66600000Y-79225000D02*
X66900000Y-78925000D01*
X66900000Y-78925000D02*
X73125000Y-78925000D01*
X73125000Y-78925000D02*
X73175000Y-78875000D01*
X74775000Y-72925000D02*
X74825000Y-72925000D01*
X71025000Y-72900000D02*
X71025000Y-70950000D01*
X71025000Y-70950000D02*
X71150000Y-70825000D01*
X74775000Y-72925000D02*
X71050000Y-72925000D01*
X71050000Y-72925000D02*
X71025000Y-72900000D01*
X69225000Y-77950000D02*
X69225000Y-76600000D01*
X69225000Y-76600000D02*
X71025000Y-74800000D01*
X60450000Y-66475000D02*
X60450000Y-66400000D01*
X60450000Y-66400000D02*
X60950000Y-65900000D01*
X65350000Y-65900000D02*
X66000000Y-66550000D01*
X60950000Y-65900000D02*
X65350000Y-65900000D01*
X66000000Y-66550000D02*
X66000000Y-66800000D01*
X58550000Y-66475000D02*
X58425000Y-66475000D01*
X58425000Y-66475000D02*
X56860000Y-68040000D01*
X56860000Y-68040000D02*
X53000000Y-68040000D01*
X60450000Y-66475000D02*
X58550000Y-66475000D01*
X59500000Y-68475000D02*
X59500000Y-68700000D01*
X59500000Y-68700000D02*
X57620000Y-70580000D01*
X57620000Y-70580000D02*
X53000000Y-70580000D01*
X62300000Y-66850000D02*
X62300000Y-66950000D01*
X62300000Y-66950000D02*
X61400000Y-67850000D01*
X61400000Y-67850000D02*
X60125000Y-67850000D01*
X60125000Y-67850000D02*
X59500000Y-68475000D01*
X53280000Y-70300000D02*
X53000000Y-70580000D01*
X53000000Y-70580000D02*
X53000000Y-70700000D01*
D27*
X61750000Y-84020000D02*
X61710000Y-84020000D01*
X56330000Y-73120000D02*
X53000000Y-73120000D01*
X59330000Y-76530000D02*
X56330000Y-73120000D01*
X59330000Y-82050000D02*
X59330000Y-76530000D01*
X61710000Y-84020000D02*
X59330000Y-82050000D01*
X82570000Y-78190000D02*
X82570000Y-77550000D01*
X82570000Y-77550000D02*
X81730000Y-76710000D01*
X74700000Y-84020000D02*
X61750000Y-84020000D01*
X77190000Y-81530000D02*
X74700000Y-84020000D01*
X77190000Y-77560000D02*
X77190000Y-81530000D01*
X78040000Y-76710000D02*
X77190000Y-77560000D01*
X81730000Y-76710000D02*
X78040000Y-76710000D01*
X85400000Y-78200000D02*
X82580000Y-78200000D01*
X82580000Y-78200000D02*
X82570000Y-78190000D01*
D26*
X82640000Y-77840000D02*
X82610000Y-77840000D01*
X85170000Y-77650000D02*
X85190000Y-77670000D01*
X67900000Y-66800000D02*
X67900000Y-66950000D01*
X67900000Y-66950000D02*
X68850000Y-67900000D01*
X68850000Y-67900000D02*
X68850000Y-70150000D01*
X67380000Y-73900000D02*
X67450000Y-73900000D01*
X67450000Y-73900000D02*
X68850000Y-72500000D01*
X68850000Y-72500000D02*
X68850000Y-70150000D01*
X67750000Y-73530000D02*
X67380000Y-73900000D01*
X67825000Y-61500000D02*
X67225000Y-62100000D01*
X67225000Y-62100000D02*
X64175000Y-62100000D01*
X67825000Y-61100000D02*
X67825000Y-61500000D01*
X63250000Y-64850000D02*
X63250000Y-63175000D01*
X63250000Y-63175000D02*
X63225000Y-63150000D01*
X64175000Y-61150000D02*
X64175000Y-62100000D01*
X64175000Y-62100000D02*
X64175000Y-62200000D01*
X64175000Y-62200000D02*
X63225000Y-63150000D01*
X64175000Y-61150000D02*
X64175000Y-60925000D01*
X65925000Y-61100000D02*
X65925000Y-60825000D01*
X65925000Y-60825000D02*
X67700000Y-59050000D01*
X62900000Y-79880000D02*
X62890000Y-78950000D01*
X63650000Y-77825000D02*
X65100000Y-77825000D01*
X62890000Y-78950000D02*
X63650000Y-77825000D01*
X62900000Y-79880000D02*
X63100000Y-79880000D01*
X62950000Y-79830000D02*
X62900000Y-79880000D01*
X64750000Y-70150000D02*
X64750000Y-73810000D01*
X64750000Y-73810000D02*
X64840000Y-73900000D01*
X66150000Y-70150000D02*
X64750000Y-70150000D01*
X64750000Y-70150000D02*
X63700000Y-70150000D01*
X61950000Y-77880000D02*
X62150000Y-77880000D01*
X62150000Y-77880000D02*
X64840000Y-74835000D01*
X64840000Y-74835000D02*
X64840000Y-73900000D01*
X61950000Y-77880000D02*
X61950000Y-77705000D01*
X62010000Y-77820000D02*
X61950000Y-77880000D01*
X62275000Y-61150000D02*
X62275000Y-59375000D01*
X62275000Y-59375000D02*
X62575000Y-59075000D01*
X61000000Y-70150000D02*
X61000000Y-69200000D01*
X64200000Y-67600000D02*
X64200000Y-66850000D01*
X63300000Y-68500000D02*
X64200000Y-67600000D01*
X61700000Y-68500000D02*
X63300000Y-68500000D01*
X61000000Y-69200000D02*
X61700000Y-68500000D01*
X61000000Y-70150000D02*
X61150000Y-70150000D01*
X61000000Y-70150000D02*
X61000000Y-72600000D01*
X61000000Y-72600000D02*
X62300000Y-73900000D01*
X78500000Y-64700000D02*
X78500000Y-63800000D01*
X78500000Y-63800000D02*
X79500000Y-62800000D01*
X78500000Y-64700000D02*
X78500000Y-64850000D01*
X78500000Y-64850000D02*
X77600000Y-65750000D01*
X74000000Y-66700000D02*
X73300000Y-66700000D01*
X74950000Y-65750000D02*
X74000000Y-66700000D01*
X77600000Y-65750000D02*
X74950000Y-65750000D01*
X74775000Y-74825000D02*
X74775000Y-77375000D01*
X74775000Y-77375000D02*
X75000000Y-77600000D01*
X74775000Y-74825000D02*
X74275000Y-74825000D01*
X74275000Y-74825000D02*
X71175000Y-77925000D01*
X76600000Y-64700000D02*
X76600000Y-63250000D01*
X76600000Y-63250000D02*
X76250000Y-62900000D01*
X74260000Y-87560000D02*
X82130000Y-87560000D01*
X83980000Y-85710000D02*
X83980000Y-80180000D01*
X82130000Y-87560000D02*
X83980000Y-85710000D01*
X74670000Y-87150000D02*
X74260000Y-87560000D01*
X80520000Y-80180000D02*
X83980000Y-80180000D01*
X83980000Y-80180000D02*
X83990000Y-80180000D01*
X86930000Y-80180000D02*
X87510000Y-79600000D01*
X83990000Y-80180000D02*
X86930000Y-80180000D01*
X87510000Y-79600000D02*
X87190000Y-79600000D01*
X87510000Y-79600000D02*
X87800000Y-79600000D01*
X87800000Y-79600000D02*
X88510000Y-78890000D01*
X88510000Y-78890000D02*
X88510000Y-76520000D01*
X88510000Y-76520000D02*
X89330000Y-75700000D01*
X89330000Y-75700000D02*
X90325000Y-75700000D01*
X73950000Y-68550000D02*
X73950000Y-70725000D01*
X73950000Y-70725000D02*
X73850000Y-70825000D01*
X73850000Y-70825000D02*
X74050000Y-70825000D01*
X73875000Y-70800000D02*
X73850000Y-70825000D01*
X80300000Y-73350000D02*
X83850000Y-69800000D01*
X80300000Y-73500000D02*
X80300000Y-73350000D01*
X80300000Y-73500000D02*
X80300000Y-73400000D01*
D27*
X82570000Y-82190000D02*
X80280000Y-82190000D01*
X71720000Y-86150000D02*
X71720000Y-87560000D01*
X72360000Y-85510000D02*
X71720000Y-86150000D01*
X76960000Y-85510000D02*
X72360000Y-85510000D01*
X80280000Y-82190000D02*
X76960000Y-85510000D01*
D26*
X80380000Y-82190000D02*
X79720000Y-82190000D01*
X79350000Y-79330000D02*
X80400000Y-78280000D01*
X79350000Y-81820000D02*
X79350000Y-79330000D01*
X79720000Y-82190000D02*
X79350000Y-81820000D01*
D27*
X82570000Y-82190000D02*
X80380000Y-82190000D01*
X71720000Y-87560000D02*
X71700000Y-88700000D01*
X71700000Y-88700000D02*
X70940000Y-89460000D01*
X70940000Y-89460000D02*
X59450000Y-89460000D01*
X59450000Y-89460000D02*
X55180000Y-85190000D01*
X55180000Y-85190000D02*
X55180000Y-78700000D01*
X55180000Y-78700000D02*
X54680000Y-78200000D01*
X54680000Y-78200000D02*
X53000000Y-78200000D01*
D26*
X80400000Y-78280000D02*
X80520000Y-78280000D01*
X80210000Y-78280000D02*
X80520000Y-78280000D01*
X53220000Y-78200000D02*
X53000000Y-78200000D01*
D27*
X91948000Y-87122000D02*
X91948000Y-87332000D01*
X91948000Y-87332000D02*
X88960000Y-91170000D01*
X53000000Y-85810000D02*
X53000000Y-80740000D01*
X58360000Y-91170000D02*
X53000000Y-85810000D01*
X88960000Y-91170000D02*
X58360000Y-91170000D01*
X91050000Y-82060000D02*
X91050000Y-85130000D01*
X91050000Y-85130000D02*
X91948000Y-87122000D01*
X92150000Y-80875000D02*
X92150000Y-80960000D01*
X92150000Y-80960000D02*
X91050000Y-82060000D01*
X91050000Y-82060000D02*
X90910000Y-82200000D01*
X90910000Y-82200000D02*
X85400000Y-82200000D01*
D26*
X88130000Y-65590000D02*
X84190000Y-66060000D01*
X84190000Y-66060000D02*
X83500000Y-66750000D01*
X83500000Y-66750000D02*
X83500000Y-67450000D01*
X83500000Y-67450000D02*
X81150000Y-69800000D01*
M02*
