G04 #@! TF.FileFunction,Copper,L2,Bot,Signal*
%FSLAX46Y46*%
G04 Gerber Fmt 4.6, Leading zero omitted, Abs format (unit mm)*
G04 Created by KiCad (PCBNEW 4.0.7) date 01/09/23 23:09:21*
%MOMM*%
%LPD*%
G01*
G04 APERTURE LIST*
%ADD10C,0.100000*%
%ADD11R,1.700000X1.700000*%
%ADD12O,1.700000X1.700000*%
%ADD13R,1.800000X1.800000*%
%ADD14O,1.800000X1.800000*%
%ADD15C,1.440000*%
%ADD16C,1.520000*%
%ADD17R,1.520000X1.520000*%
%ADD18C,0.600000*%
%ADD19C,1.000000*%
%ADD20C,0.254000*%
G04 APERTURE END LIST*
D10*
D11*
X53000000Y-65500000D03*
D12*
X53000000Y-68040000D03*
X53000000Y-70580000D03*
X53000000Y-73120000D03*
X53000000Y-75660000D03*
X53000000Y-78200000D03*
X53000000Y-80740000D03*
D13*
X74260000Y-87560000D03*
D14*
X71720000Y-87560000D03*
X69180000Y-87560000D03*
D15*
X62300000Y-73900000D03*
X64840000Y-73900000D03*
X67380000Y-73900000D03*
X80300000Y-73500000D03*
X82840000Y-73500000D03*
X85380000Y-73500000D03*
D11*
X57500000Y-79000000D03*
D12*
X57500000Y-81540000D03*
D11*
X57500000Y-59000000D03*
D12*
X57500000Y-61540000D03*
D16*
X88130000Y-65590000D03*
X88130000Y-63050000D03*
D17*
X88130000Y-68130000D03*
D13*
X97028000Y-87122000D03*
D14*
X94488000Y-87122000D03*
X91948000Y-87122000D03*
D18*
X100140000Y-90870000D03*
X100140000Y-89820000D03*
X99750000Y-75470000D03*
X100000000Y-80000000D03*
X79250000Y-58750000D03*
X76100000Y-58750000D03*
X70000000Y-67300000D03*
X90300000Y-58600000D03*
X93700000Y-58500000D03*
X78580000Y-80350000D03*
X79180000Y-78230000D03*
X89610000Y-79630000D03*
X89540000Y-77600000D03*
X72450000Y-70750000D03*
X73400000Y-81000000D03*
X95700000Y-71450000D03*
X96550000Y-72350000D03*
X66400000Y-81550000D03*
X68250000Y-81200000D03*
X69850000Y-81000000D03*
D19*
X53000000Y-75660000D02*
X56840000Y-75660000D01*
X57500000Y-75000000D02*
X57500000Y-61540000D01*
X56840000Y-75660000D02*
X57500000Y-75000000D01*
X53000000Y-65500000D02*
X51000000Y-65500000D01*
X57500000Y-84500000D02*
X57500000Y-81540000D01*
X57000000Y-85000000D02*
X57500000Y-84500000D01*
X51500000Y-85000000D02*
X57000000Y-85000000D01*
X50500000Y-84000000D02*
X51500000Y-85000000D01*
X50500000Y-66000000D02*
X50500000Y-84000000D01*
X51000000Y-65500000D02*
X50500000Y-66000000D01*
D20*
G36*
X51611673Y-64290301D02*
X51515000Y-64523690D01*
X51515000Y-65214250D01*
X51673750Y-65373000D01*
X51825000Y-65373000D01*
X51825000Y-65627000D01*
X51673750Y-65627000D01*
X51515000Y-65785750D01*
X51515000Y-66476310D01*
X51611673Y-66709699D01*
X51790302Y-66888327D01*
X51825000Y-66902699D01*
X51825000Y-67133400D01*
X51598946Y-67471715D01*
X51485907Y-68040000D01*
X51598946Y-68608285D01*
X51825000Y-68946600D01*
X51825000Y-69673400D01*
X51598946Y-70011715D01*
X51485907Y-70580000D01*
X51598946Y-71148285D01*
X51873000Y-71558437D01*
X51873000Y-72141563D01*
X51598946Y-72551715D01*
X51485907Y-73120000D01*
X51598946Y-73688285D01*
X51873000Y-74098437D01*
X51873000Y-74681563D01*
X51598946Y-75091715D01*
X51485907Y-75660000D01*
X51598946Y-76228285D01*
X51873000Y-76638437D01*
X51873000Y-77221563D01*
X51598946Y-77631715D01*
X51485907Y-78200000D01*
X51598946Y-78768285D01*
X51920853Y-79250054D01*
X52250026Y-79470000D01*
X51920853Y-79689946D01*
X51598946Y-80171715D01*
X51485907Y-80740000D01*
X51598946Y-81308285D01*
X51920853Y-81790054D01*
X52402622Y-82111961D01*
X52970907Y-82225000D01*
X53029093Y-82225000D01*
X53597378Y-82111961D01*
X53919255Y-81896890D01*
X56058524Y-81896890D01*
X56228355Y-82306924D01*
X56618642Y-82735183D01*
X57143108Y-82981486D01*
X57373000Y-82860819D01*
X57373000Y-81667000D01*
X57627000Y-81667000D01*
X57627000Y-82860819D01*
X57856892Y-82981486D01*
X58381358Y-82735183D01*
X58771645Y-82306924D01*
X58941476Y-81896890D01*
X58820155Y-81667000D01*
X57627000Y-81667000D01*
X57373000Y-81667000D01*
X56179845Y-81667000D01*
X56058524Y-81896890D01*
X53919255Y-81896890D01*
X54079147Y-81790054D01*
X54401054Y-81308285D01*
X54514093Y-80740000D01*
X54401054Y-80171715D01*
X54079147Y-79689946D01*
X53749974Y-79470000D01*
X54025724Y-79285750D01*
X56015000Y-79285750D01*
X56015000Y-79976310D01*
X56111673Y-80209699D01*
X56290302Y-80388327D01*
X56499878Y-80475136D01*
X56228355Y-80773076D01*
X56058524Y-81183110D01*
X56179845Y-81413000D01*
X57373000Y-81413000D01*
X57373000Y-79127000D01*
X57627000Y-79127000D01*
X57627000Y-81413000D01*
X58820155Y-81413000D01*
X58941476Y-81183110D01*
X58771645Y-80773076D01*
X58500122Y-80475136D01*
X58709698Y-80388327D01*
X58888327Y-80209699D01*
X58985000Y-79976310D01*
X58985000Y-79285750D01*
X58826250Y-79127000D01*
X57627000Y-79127000D01*
X57373000Y-79127000D01*
X56173750Y-79127000D01*
X56015000Y-79285750D01*
X54025724Y-79285750D01*
X54079147Y-79250054D01*
X54401054Y-78768285D01*
X54514093Y-78200000D01*
X54401054Y-77631715D01*
X54397904Y-77627000D01*
X56274975Y-77627000D01*
X56111673Y-77790301D01*
X56015000Y-78023690D01*
X56015000Y-78714250D01*
X56173750Y-78873000D01*
X57373000Y-78873000D01*
X57373000Y-78853000D01*
X57627000Y-78853000D01*
X57627000Y-78873000D01*
X58826250Y-78873000D01*
X58985000Y-78714250D01*
X58985000Y-78023690D01*
X58888327Y-77790301D01*
X58725025Y-77627000D01*
X61000000Y-77627000D01*
X61049410Y-77616994D01*
X61091035Y-77588553D01*
X61118315Y-77546159D01*
X61127000Y-77500000D01*
X61127000Y-74609386D01*
X61150617Y-74666543D01*
X61531452Y-75048043D01*
X62029291Y-75254764D01*
X62568344Y-75255235D01*
X63066543Y-75049383D01*
X63448043Y-74668548D01*
X63570045Y-74374736D01*
X63690617Y-74666543D01*
X64071452Y-75048043D01*
X64569291Y-75254764D01*
X65108344Y-75255235D01*
X65606543Y-75049383D01*
X65988043Y-74668548D01*
X66110045Y-74374736D01*
X66230617Y-74666543D01*
X66611452Y-75048043D01*
X67109291Y-75254764D01*
X67648344Y-75255235D01*
X68146543Y-75049383D01*
X68528043Y-74668548D01*
X68734764Y-74170709D01*
X68735115Y-73768344D01*
X78944765Y-73768344D01*
X79150617Y-74266543D01*
X79531452Y-74648043D01*
X80029291Y-74854764D01*
X80568344Y-74855235D01*
X81066543Y-74649383D01*
X81448043Y-74268548D01*
X81570045Y-73974736D01*
X81690617Y-74266543D01*
X82071452Y-74648043D01*
X82569291Y-74854764D01*
X83108344Y-74855235D01*
X83606543Y-74649383D01*
X83988043Y-74268548D01*
X84110045Y-73974736D01*
X84230617Y-74266543D01*
X84611452Y-74648043D01*
X85109291Y-74854764D01*
X85648344Y-74855235D01*
X86146543Y-74649383D01*
X86528043Y-74268548D01*
X86734764Y-73770709D01*
X86735235Y-73231656D01*
X86529383Y-72733457D01*
X86148548Y-72351957D01*
X85650709Y-72145236D01*
X85111656Y-72144765D01*
X84613457Y-72350617D01*
X84231957Y-72731452D01*
X84109955Y-73025264D01*
X83989383Y-72733457D01*
X83608548Y-72351957D01*
X83110709Y-72145236D01*
X82571656Y-72144765D01*
X82073457Y-72350617D01*
X81691957Y-72731452D01*
X81569955Y-73025264D01*
X81449383Y-72733457D01*
X81068548Y-72351957D01*
X80570709Y-72145236D01*
X80031656Y-72144765D01*
X79533457Y-72350617D01*
X79151957Y-72731452D01*
X78945236Y-73229291D01*
X78944765Y-73768344D01*
X68735115Y-73768344D01*
X68735235Y-73631656D01*
X68529383Y-73133457D01*
X68148548Y-72751957D01*
X67650709Y-72545236D01*
X67111656Y-72544765D01*
X66613457Y-72750617D01*
X66231957Y-73131452D01*
X66109955Y-73425264D01*
X65989383Y-73133457D01*
X65608548Y-72751957D01*
X65110709Y-72545236D01*
X64571656Y-72544765D01*
X64073457Y-72750617D01*
X63691957Y-73131452D01*
X63569955Y-73425264D01*
X63449383Y-73133457D01*
X63068548Y-72751957D01*
X62570709Y-72545236D01*
X62031656Y-72544765D01*
X61533457Y-72750617D01*
X61151957Y-73131452D01*
X61127000Y-73191555D01*
X61127000Y-70127000D01*
X97873000Y-70127000D01*
X97873000Y-85574560D01*
X96128000Y-85574560D01*
X95892683Y-85618838D01*
X95676559Y-85757910D01*
X95531569Y-85970110D01*
X95528281Y-85986344D01*
X95105491Y-85703845D01*
X94518072Y-85587000D01*
X94457928Y-85587000D01*
X93870509Y-85703845D01*
X93372519Y-86036591D01*
X93218000Y-86267845D01*
X93063481Y-86036591D01*
X92565491Y-85703845D01*
X91978072Y-85587000D01*
X91917928Y-85587000D01*
X91330509Y-85703845D01*
X90832519Y-86036591D01*
X90499773Y-86534581D01*
X90382928Y-87122000D01*
X90499773Y-87709419D01*
X90832519Y-88207409D01*
X91330509Y-88540155D01*
X91917928Y-88657000D01*
X91978072Y-88657000D01*
X92565491Y-88540155D01*
X93063481Y-88207409D01*
X93218000Y-87976155D01*
X93372519Y-88207409D01*
X93870509Y-88540155D01*
X94457928Y-88657000D01*
X94518072Y-88657000D01*
X95105491Y-88540155D01*
X95526026Y-88259163D01*
X95663910Y-88473441D01*
X95876110Y-88618431D01*
X96128000Y-88669440D01*
X97873000Y-88669440D01*
X97873000Y-91290000D01*
X49710000Y-91290000D01*
X49710000Y-87924740D01*
X67688964Y-87924740D01*
X67867760Y-88356417D01*
X68272424Y-88797966D01*
X68815258Y-89051046D01*
X69053000Y-88930997D01*
X69053000Y-87687000D01*
X67809622Y-87687000D01*
X67688964Y-87924740D01*
X49710000Y-87924740D01*
X49710000Y-87195260D01*
X67688964Y-87195260D01*
X67809622Y-87433000D01*
X69053000Y-87433000D01*
X69053000Y-86189003D01*
X69307000Y-86189003D01*
X69307000Y-87433000D01*
X69327000Y-87433000D01*
X69327000Y-87687000D01*
X69307000Y-87687000D01*
X69307000Y-88930997D01*
X69544742Y-89051046D01*
X70087576Y-88797966D01*
X70445499Y-88407418D01*
X70604519Y-88645409D01*
X71102509Y-88978155D01*
X71689928Y-89095000D01*
X71750072Y-89095000D01*
X72337491Y-88978155D01*
X72758026Y-88697163D01*
X72895910Y-88911441D01*
X73108110Y-89056431D01*
X73360000Y-89107440D01*
X75160000Y-89107440D01*
X75395317Y-89063162D01*
X75611441Y-88924090D01*
X75756431Y-88711890D01*
X75807440Y-88460000D01*
X75807440Y-86660000D01*
X75763162Y-86424683D01*
X75624090Y-86208559D01*
X75411890Y-86063569D01*
X75160000Y-86012560D01*
X73360000Y-86012560D01*
X73124683Y-86056838D01*
X72908559Y-86195910D01*
X72763569Y-86408110D01*
X72760281Y-86424344D01*
X72337491Y-86141845D01*
X71750072Y-86025000D01*
X71689928Y-86025000D01*
X71102509Y-86141845D01*
X70604519Y-86474591D01*
X70445499Y-86712582D01*
X70087576Y-86322034D01*
X69544742Y-86068954D01*
X69307000Y-86189003D01*
X69053000Y-86189003D01*
X68815258Y-86068954D01*
X68272424Y-86322034D01*
X67867760Y-86763583D01*
X67688964Y-87195260D01*
X49710000Y-87195260D01*
X49710000Y-64127000D01*
X51774975Y-64127000D01*
X51611673Y-64290301D01*
X51611673Y-64290301D01*
G37*
X51611673Y-64290301D02*
X51515000Y-64523690D01*
X51515000Y-65214250D01*
X51673750Y-65373000D01*
X51825000Y-65373000D01*
X51825000Y-65627000D01*
X51673750Y-65627000D01*
X51515000Y-65785750D01*
X51515000Y-66476310D01*
X51611673Y-66709699D01*
X51790302Y-66888327D01*
X51825000Y-66902699D01*
X51825000Y-67133400D01*
X51598946Y-67471715D01*
X51485907Y-68040000D01*
X51598946Y-68608285D01*
X51825000Y-68946600D01*
X51825000Y-69673400D01*
X51598946Y-70011715D01*
X51485907Y-70580000D01*
X51598946Y-71148285D01*
X51873000Y-71558437D01*
X51873000Y-72141563D01*
X51598946Y-72551715D01*
X51485907Y-73120000D01*
X51598946Y-73688285D01*
X51873000Y-74098437D01*
X51873000Y-74681563D01*
X51598946Y-75091715D01*
X51485907Y-75660000D01*
X51598946Y-76228285D01*
X51873000Y-76638437D01*
X51873000Y-77221563D01*
X51598946Y-77631715D01*
X51485907Y-78200000D01*
X51598946Y-78768285D01*
X51920853Y-79250054D01*
X52250026Y-79470000D01*
X51920853Y-79689946D01*
X51598946Y-80171715D01*
X51485907Y-80740000D01*
X51598946Y-81308285D01*
X51920853Y-81790054D01*
X52402622Y-82111961D01*
X52970907Y-82225000D01*
X53029093Y-82225000D01*
X53597378Y-82111961D01*
X53919255Y-81896890D01*
X56058524Y-81896890D01*
X56228355Y-82306924D01*
X56618642Y-82735183D01*
X57143108Y-82981486D01*
X57373000Y-82860819D01*
X57373000Y-81667000D01*
X57627000Y-81667000D01*
X57627000Y-82860819D01*
X57856892Y-82981486D01*
X58381358Y-82735183D01*
X58771645Y-82306924D01*
X58941476Y-81896890D01*
X58820155Y-81667000D01*
X57627000Y-81667000D01*
X57373000Y-81667000D01*
X56179845Y-81667000D01*
X56058524Y-81896890D01*
X53919255Y-81896890D01*
X54079147Y-81790054D01*
X54401054Y-81308285D01*
X54514093Y-80740000D01*
X54401054Y-80171715D01*
X54079147Y-79689946D01*
X53749974Y-79470000D01*
X54025724Y-79285750D01*
X56015000Y-79285750D01*
X56015000Y-79976310D01*
X56111673Y-80209699D01*
X56290302Y-80388327D01*
X56499878Y-80475136D01*
X56228355Y-80773076D01*
X56058524Y-81183110D01*
X56179845Y-81413000D01*
X57373000Y-81413000D01*
X57373000Y-79127000D01*
X57627000Y-79127000D01*
X57627000Y-81413000D01*
X58820155Y-81413000D01*
X58941476Y-81183110D01*
X58771645Y-80773076D01*
X58500122Y-80475136D01*
X58709698Y-80388327D01*
X58888327Y-80209699D01*
X58985000Y-79976310D01*
X58985000Y-79285750D01*
X58826250Y-79127000D01*
X57627000Y-79127000D01*
X57373000Y-79127000D01*
X56173750Y-79127000D01*
X56015000Y-79285750D01*
X54025724Y-79285750D01*
X54079147Y-79250054D01*
X54401054Y-78768285D01*
X54514093Y-78200000D01*
X54401054Y-77631715D01*
X54397904Y-77627000D01*
X56274975Y-77627000D01*
X56111673Y-77790301D01*
X56015000Y-78023690D01*
X56015000Y-78714250D01*
X56173750Y-78873000D01*
X57373000Y-78873000D01*
X57373000Y-78853000D01*
X57627000Y-78853000D01*
X57627000Y-78873000D01*
X58826250Y-78873000D01*
X58985000Y-78714250D01*
X58985000Y-78023690D01*
X58888327Y-77790301D01*
X58725025Y-77627000D01*
X61000000Y-77627000D01*
X61049410Y-77616994D01*
X61091035Y-77588553D01*
X61118315Y-77546159D01*
X61127000Y-77500000D01*
X61127000Y-74609386D01*
X61150617Y-74666543D01*
X61531452Y-75048043D01*
X62029291Y-75254764D01*
X62568344Y-75255235D01*
X63066543Y-75049383D01*
X63448043Y-74668548D01*
X63570045Y-74374736D01*
X63690617Y-74666543D01*
X64071452Y-75048043D01*
X64569291Y-75254764D01*
X65108344Y-75255235D01*
X65606543Y-75049383D01*
X65988043Y-74668548D01*
X66110045Y-74374736D01*
X66230617Y-74666543D01*
X66611452Y-75048043D01*
X67109291Y-75254764D01*
X67648344Y-75255235D01*
X68146543Y-75049383D01*
X68528043Y-74668548D01*
X68734764Y-74170709D01*
X68735115Y-73768344D01*
X78944765Y-73768344D01*
X79150617Y-74266543D01*
X79531452Y-74648043D01*
X80029291Y-74854764D01*
X80568344Y-74855235D01*
X81066543Y-74649383D01*
X81448043Y-74268548D01*
X81570045Y-73974736D01*
X81690617Y-74266543D01*
X82071452Y-74648043D01*
X82569291Y-74854764D01*
X83108344Y-74855235D01*
X83606543Y-74649383D01*
X83988043Y-74268548D01*
X84110045Y-73974736D01*
X84230617Y-74266543D01*
X84611452Y-74648043D01*
X85109291Y-74854764D01*
X85648344Y-74855235D01*
X86146543Y-74649383D01*
X86528043Y-74268548D01*
X86734764Y-73770709D01*
X86735235Y-73231656D01*
X86529383Y-72733457D01*
X86148548Y-72351957D01*
X85650709Y-72145236D01*
X85111656Y-72144765D01*
X84613457Y-72350617D01*
X84231957Y-72731452D01*
X84109955Y-73025264D01*
X83989383Y-72733457D01*
X83608548Y-72351957D01*
X83110709Y-72145236D01*
X82571656Y-72144765D01*
X82073457Y-72350617D01*
X81691957Y-72731452D01*
X81569955Y-73025264D01*
X81449383Y-72733457D01*
X81068548Y-72351957D01*
X80570709Y-72145236D01*
X80031656Y-72144765D01*
X79533457Y-72350617D01*
X79151957Y-72731452D01*
X78945236Y-73229291D01*
X78944765Y-73768344D01*
X68735115Y-73768344D01*
X68735235Y-73631656D01*
X68529383Y-73133457D01*
X68148548Y-72751957D01*
X67650709Y-72545236D01*
X67111656Y-72544765D01*
X66613457Y-72750617D01*
X66231957Y-73131452D01*
X66109955Y-73425264D01*
X65989383Y-73133457D01*
X65608548Y-72751957D01*
X65110709Y-72545236D01*
X64571656Y-72544765D01*
X64073457Y-72750617D01*
X63691957Y-73131452D01*
X63569955Y-73425264D01*
X63449383Y-73133457D01*
X63068548Y-72751957D01*
X62570709Y-72545236D01*
X62031656Y-72544765D01*
X61533457Y-72750617D01*
X61151957Y-73131452D01*
X61127000Y-73191555D01*
X61127000Y-70127000D01*
X97873000Y-70127000D01*
X97873000Y-85574560D01*
X96128000Y-85574560D01*
X95892683Y-85618838D01*
X95676559Y-85757910D01*
X95531569Y-85970110D01*
X95528281Y-85986344D01*
X95105491Y-85703845D01*
X94518072Y-85587000D01*
X94457928Y-85587000D01*
X93870509Y-85703845D01*
X93372519Y-86036591D01*
X93218000Y-86267845D01*
X93063481Y-86036591D01*
X92565491Y-85703845D01*
X91978072Y-85587000D01*
X91917928Y-85587000D01*
X91330509Y-85703845D01*
X90832519Y-86036591D01*
X90499773Y-86534581D01*
X90382928Y-87122000D01*
X90499773Y-87709419D01*
X90832519Y-88207409D01*
X91330509Y-88540155D01*
X91917928Y-88657000D01*
X91978072Y-88657000D01*
X92565491Y-88540155D01*
X93063481Y-88207409D01*
X93218000Y-87976155D01*
X93372519Y-88207409D01*
X93870509Y-88540155D01*
X94457928Y-88657000D01*
X94518072Y-88657000D01*
X95105491Y-88540155D01*
X95526026Y-88259163D01*
X95663910Y-88473441D01*
X95876110Y-88618431D01*
X96128000Y-88669440D01*
X97873000Y-88669440D01*
X97873000Y-91290000D01*
X49710000Y-91290000D01*
X49710000Y-87924740D01*
X67688964Y-87924740D01*
X67867760Y-88356417D01*
X68272424Y-88797966D01*
X68815258Y-89051046D01*
X69053000Y-88930997D01*
X69053000Y-87687000D01*
X67809622Y-87687000D01*
X67688964Y-87924740D01*
X49710000Y-87924740D01*
X49710000Y-87195260D01*
X67688964Y-87195260D01*
X67809622Y-87433000D01*
X69053000Y-87433000D01*
X69053000Y-86189003D01*
X69307000Y-86189003D01*
X69307000Y-87433000D01*
X69327000Y-87433000D01*
X69327000Y-87687000D01*
X69307000Y-87687000D01*
X69307000Y-88930997D01*
X69544742Y-89051046D01*
X70087576Y-88797966D01*
X70445499Y-88407418D01*
X70604519Y-88645409D01*
X71102509Y-88978155D01*
X71689928Y-89095000D01*
X71750072Y-89095000D01*
X72337491Y-88978155D01*
X72758026Y-88697163D01*
X72895910Y-88911441D01*
X73108110Y-89056431D01*
X73360000Y-89107440D01*
X75160000Y-89107440D01*
X75395317Y-89063162D01*
X75611441Y-88924090D01*
X75756431Y-88711890D01*
X75807440Y-88460000D01*
X75807440Y-86660000D01*
X75763162Y-86424683D01*
X75624090Y-86208559D01*
X75411890Y-86063569D01*
X75160000Y-86012560D01*
X73360000Y-86012560D01*
X73124683Y-86056838D01*
X72908559Y-86195910D01*
X72763569Y-86408110D01*
X72760281Y-86424344D01*
X72337491Y-86141845D01*
X71750072Y-86025000D01*
X71689928Y-86025000D01*
X71102509Y-86141845D01*
X70604519Y-86474591D01*
X70445499Y-86712582D01*
X70087576Y-86322034D01*
X69544742Y-86068954D01*
X69307000Y-86189003D01*
X69053000Y-86189003D01*
X68815258Y-86068954D01*
X68272424Y-86322034D01*
X67867760Y-86763583D01*
X67688964Y-87195260D01*
X49710000Y-87195260D01*
X49710000Y-64127000D01*
X51774975Y-64127000D01*
X51611673Y-64290301D01*
G36*
X56111673Y-57790301D02*
X56015000Y-58023690D01*
X56015000Y-58714250D01*
X56173750Y-58873000D01*
X57373000Y-58873000D01*
X57373000Y-58853000D01*
X57627000Y-58853000D01*
X57627000Y-58873000D01*
X58826250Y-58873000D01*
X58985000Y-58714250D01*
X58985000Y-58023690D01*
X58888327Y-57790301D01*
X58808026Y-57710000D01*
X101290000Y-57710000D01*
X101290000Y-91290000D01*
X99127000Y-91290000D01*
X99127000Y-69000000D01*
X99116994Y-68950590D01*
X99088553Y-68908965D01*
X99046159Y-68881685D01*
X99000000Y-68873000D01*
X89537440Y-68873000D01*
X89537440Y-67370000D01*
X89493162Y-67134683D01*
X89354090Y-66918559D01*
X89141890Y-66773569D01*
X88956520Y-66736031D01*
X89311934Y-66381236D01*
X89524758Y-65868700D01*
X89525242Y-65313735D01*
X89313313Y-64800828D01*
X88921236Y-64408066D01*
X88709262Y-64320046D01*
X88919172Y-64233313D01*
X89311934Y-63841236D01*
X89524758Y-63328700D01*
X89525242Y-62773735D01*
X89313313Y-62260828D01*
X88921236Y-61868066D01*
X88408700Y-61655242D01*
X87853735Y-61654758D01*
X87340828Y-61866687D01*
X86948066Y-62258764D01*
X86735242Y-62771300D01*
X86734758Y-63326265D01*
X86946687Y-63839172D01*
X87338764Y-64231934D01*
X87550738Y-64319954D01*
X87340828Y-64406687D01*
X86948066Y-64798764D01*
X86735242Y-65311300D01*
X86734758Y-65866265D01*
X86946687Y-66379172D01*
X87302210Y-66735316D01*
X87134683Y-66766838D01*
X86918559Y-66905910D01*
X86773569Y-67118110D01*
X86722560Y-67370000D01*
X86722560Y-68873000D01*
X60000000Y-68873000D01*
X59950590Y-68883006D01*
X59908965Y-68911447D01*
X59881685Y-68953841D01*
X59873000Y-69000000D01*
X59873000Y-76373000D01*
X54293980Y-76373000D01*
X54441476Y-76016890D01*
X54320155Y-75787000D01*
X53127000Y-75787000D01*
X53127000Y-75533000D01*
X54320155Y-75533000D01*
X54441476Y-75303110D01*
X54271645Y-74893076D01*
X53881358Y-74464817D01*
X53738447Y-74397702D01*
X54079147Y-74170054D01*
X54401054Y-73688285D01*
X54514093Y-73120000D01*
X54401054Y-72551715D01*
X54117269Y-72127000D01*
X54984000Y-72127000D01*
X55033410Y-72116994D01*
X55075035Y-72088553D01*
X55102315Y-72046159D01*
X55111000Y-72000000D01*
X55111000Y-63000000D01*
X55100994Y-62950590D01*
X55072553Y-62908965D01*
X55030159Y-62881685D01*
X54984000Y-62873000D01*
X49710000Y-62873000D01*
X49710000Y-61896890D01*
X56058524Y-61896890D01*
X56228355Y-62306924D01*
X56618642Y-62735183D01*
X57143108Y-62981486D01*
X57373000Y-62860819D01*
X57373000Y-61667000D01*
X57627000Y-61667000D01*
X57627000Y-62860819D01*
X57856892Y-62981486D01*
X58381358Y-62735183D01*
X58771645Y-62306924D01*
X58941476Y-61896890D01*
X58820155Y-61667000D01*
X57627000Y-61667000D01*
X57373000Y-61667000D01*
X56179845Y-61667000D01*
X56058524Y-61896890D01*
X49710000Y-61896890D01*
X49710000Y-59285750D01*
X56015000Y-59285750D01*
X56015000Y-59976310D01*
X56111673Y-60209699D01*
X56290302Y-60388327D01*
X56499878Y-60475136D01*
X56228355Y-60773076D01*
X56058524Y-61183110D01*
X56179845Y-61413000D01*
X57373000Y-61413000D01*
X57373000Y-59127000D01*
X57627000Y-59127000D01*
X57627000Y-61413000D01*
X58820155Y-61413000D01*
X58941476Y-61183110D01*
X58771645Y-60773076D01*
X58500122Y-60475136D01*
X58709698Y-60388327D01*
X58888327Y-60209699D01*
X58985000Y-59976310D01*
X58985000Y-59285750D01*
X58826250Y-59127000D01*
X57627000Y-59127000D01*
X57373000Y-59127000D01*
X56173750Y-59127000D01*
X56015000Y-59285750D01*
X49710000Y-59285750D01*
X49710000Y-57710000D01*
X56191974Y-57710000D01*
X56111673Y-57790301D01*
X56111673Y-57790301D01*
G37*
X56111673Y-57790301D02*
X56015000Y-58023690D01*
X56015000Y-58714250D01*
X56173750Y-58873000D01*
X57373000Y-58873000D01*
X57373000Y-58853000D01*
X57627000Y-58853000D01*
X57627000Y-58873000D01*
X58826250Y-58873000D01*
X58985000Y-58714250D01*
X58985000Y-58023690D01*
X58888327Y-57790301D01*
X58808026Y-57710000D01*
X101290000Y-57710000D01*
X101290000Y-91290000D01*
X99127000Y-91290000D01*
X99127000Y-69000000D01*
X99116994Y-68950590D01*
X99088553Y-68908965D01*
X99046159Y-68881685D01*
X99000000Y-68873000D01*
X89537440Y-68873000D01*
X89537440Y-67370000D01*
X89493162Y-67134683D01*
X89354090Y-66918559D01*
X89141890Y-66773569D01*
X88956520Y-66736031D01*
X89311934Y-66381236D01*
X89524758Y-65868700D01*
X89525242Y-65313735D01*
X89313313Y-64800828D01*
X88921236Y-64408066D01*
X88709262Y-64320046D01*
X88919172Y-64233313D01*
X89311934Y-63841236D01*
X89524758Y-63328700D01*
X89525242Y-62773735D01*
X89313313Y-62260828D01*
X88921236Y-61868066D01*
X88408700Y-61655242D01*
X87853735Y-61654758D01*
X87340828Y-61866687D01*
X86948066Y-62258764D01*
X86735242Y-62771300D01*
X86734758Y-63326265D01*
X86946687Y-63839172D01*
X87338764Y-64231934D01*
X87550738Y-64319954D01*
X87340828Y-64406687D01*
X86948066Y-64798764D01*
X86735242Y-65311300D01*
X86734758Y-65866265D01*
X86946687Y-66379172D01*
X87302210Y-66735316D01*
X87134683Y-66766838D01*
X86918559Y-66905910D01*
X86773569Y-67118110D01*
X86722560Y-67370000D01*
X86722560Y-68873000D01*
X60000000Y-68873000D01*
X59950590Y-68883006D01*
X59908965Y-68911447D01*
X59881685Y-68953841D01*
X59873000Y-69000000D01*
X59873000Y-76373000D01*
X54293980Y-76373000D01*
X54441476Y-76016890D01*
X54320155Y-75787000D01*
X53127000Y-75787000D01*
X53127000Y-75533000D01*
X54320155Y-75533000D01*
X54441476Y-75303110D01*
X54271645Y-74893076D01*
X53881358Y-74464817D01*
X53738447Y-74397702D01*
X54079147Y-74170054D01*
X54401054Y-73688285D01*
X54514093Y-73120000D01*
X54401054Y-72551715D01*
X54117269Y-72127000D01*
X54984000Y-72127000D01*
X55033410Y-72116994D01*
X55075035Y-72088553D01*
X55102315Y-72046159D01*
X55111000Y-72000000D01*
X55111000Y-63000000D01*
X55100994Y-62950590D01*
X55072553Y-62908965D01*
X55030159Y-62881685D01*
X54984000Y-62873000D01*
X49710000Y-62873000D01*
X49710000Y-61896890D01*
X56058524Y-61896890D01*
X56228355Y-62306924D01*
X56618642Y-62735183D01*
X57143108Y-62981486D01*
X57373000Y-62860819D01*
X57373000Y-61667000D01*
X57627000Y-61667000D01*
X57627000Y-62860819D01*
X57856892Y-62981486D01*
X58381358Y-62735183D01*
X58771645Y-62306924D01*
X58941476Y-61896890D01*
X58820155Y-61667000D01*
X57627000Y-61667000D01*
X57373000Y-61667000D01*
X56179845Y-61667000D01*
X56058524Y-61896890D01*
X49710000Y-61896890D01*
X49710000Y-59285750D01*
X56015000Y-59285750D01*
X56015000Y-59976310D01*
X56111673Y-60209699D01*
X56290302Y-60388327D01*
X56499878Y-60475136D01*
X56228355Y-60773076D01*
X56058524Y-61183110D01*
X56179845Y-61413000D01*
X57373000Y-61413000D01*
X57373000Y-59127000D01*
X57627000Y-59127000D01*
X57627000Y-61413000D01*
X58820155Y-61413000D01*
X58941476Y-61183110D01*
X58771645Y-60773076D01*
X58500122Y-60475136D01*
X58709698Y-60388327D01*
X58888327Y-60209699D01*
X58985000Y-59976310D01*
X58985000Y-59285750D01*
X58826250Y-59127000D01*
X57627000Y-59127000D01*
X57373000Y-59127000D01*
X56173750Y-59127000D01*
X56015000Y-59285750D01*
X49710000Y-59285750D01*
X49710000Y-57710000D01*
X56191974Y-57710000D01*
X56111673Y-57790301D01*
M02*
