M48
;DRILL file {KiCad 4.0.7} date 03/31/21 18:46:29
;FORMAT={-:-/ absolute / metric / decimal}
FMAT,2
METRIC,TZ
T1C0.400
T2C0.800
T3C1.000
%
G90
G05
M71
T1
X51.47Y-71.57
X55.1Y-66.9
X64.05Y-60.05
X66.4Y-81.55
X68.25Y-81.2
X69.85Y-60.25
X69.85Y-81.
X71.6Y-62.3
X72.25Y-58.45
X73.4Y-81.
X75.6Y-58.1
X76.7Y-67.5
X77.25Y-64.75
X77.95Y-77.95
X78.Y-76.8
X80.3Y-69.9
X81.5Y-58.4
X86.575Y-65.625
X87.Y-79.8
X87.65Y-67.125
X87.7Y-77.2
X90.3Y-58.6
X93.7Y-58.5
X93.95Y-66.95
X94.8Y-67.45
X95.7Y-71.45
X96.55Y-72.35
T2
X62.3Y-73.9
X64.84Y-73.9
X67.38Y-73.9
X80.3Y-73.5
X82.84Y-73.5
X85.38Y-73.5
T3
X53.Y-65.5
X53.Y-68.04
X53.Y-70.58
X53.Y-73.12
X53.Y-75.66
X58.Y-59.
X58.Y-61.54
X58.Y-79.
X58.Y-81.54
X78.2Y-81.5
X80.74Y-81.5
T0
M30
