M48
;DRILL file {KiCad 4.0.7} date 05/22/21 22:10:29
;FORMAT={-:-/ absolute / inch / decimal}
FMAT,2
INCH,TZ
T1C0.016
T2C0.031
T3C0.039
%
G90
G05
M72
T1
X2.5472Y-2.2736
X2.6142Y-3.2106
X2.687Y-3.1969
X2.75Y-3.189
X2.7559Y-2.6496
X2.8386Y-2.2854
X2.8524Y-2.7854
X2.8898Y-3.189
X2.9961Y-2.313
X3.0937Y-3.1634
X3.1173Y-3.0799
X3.1201Y-2.313
X3.5252Y-3.0551
X3.528Y-3.135
X3.5551Y-2.3071
X3.689Y-2.3031
X3.7677Y-2.813
X3.8012Y-2.8484
X3.9272Y-2.9713
X3.937Y-3.1496
X3.9425Y-3.5362
X3.9425Y-3.5776
T2
X2.4528Y-2.9094
X2.5528Y-2.9094
X2.6528Y-2.9094
X3.1614Y-2.8937
X3.2614Y-2.8937
X3.3614Y-2.8937
X3.4685Y-2.5008
X3.4685Y-2.6008
X3.4685Y-2.7008
T3
X2.0866Y-2.5787
X2.0866Y-2.6787
X2.0866Y-2.7787
X2.0866Y-2.8787
X2.0866Y-2.9787
X2.0866Y-3.0787
X2.0866Y-3.1787
X2.2638Y-2.3228
X2.2638Y-2.4228
X2.2638Y-3.1102
X2.2638Y-3.2102
X2.7236Y-3.4472
X2.8236Y-3.4472
X2.9236Y-3.4472
X3.6583Y-3.4252
X3.7583Y-3.4252
X3.8583Y-3.4252
T0
M30
