G04 #@! TF.FileFunction,Soldermask,Top*
%FSLAX46Y46*%
G04 Gerber Fmt 4.6, Leading zero omitted, Abs format (unit mm)*
G04 Created by KiCad (PCBNEW 4.0.7) date 03/31/21 18:46:28*
%MOMM*%
%LPD*%
G01*
G04 APERTURE LIST*
%ADD10C,0.100000*%
%ADD11R,1.200000X1.300000*%
%ADD12R,1.650000X1.900000*%
%ADD13R,1.900000X1.650000*%
%ADD14R,1.300000X1.200000*%
%ADD15R,2.100000X2.100000*%
%ADD16O,2.100000X2.100000*%
%ADD17C,1.840000*%
%ADD18R,1.900000X1.700000*%
%ADD19R,1.700000X1.900000*%
G04 APERTURE END LIST*
D10*
D11*
X67825000Y-61100000D03*
X65925000Y-61100000D03*
X66875000Y-63100000D03*
D12*
X92200000Y-59000000D03*
X92200000Y-61500000D03*
D13*
X94150000Y-61700000D03*
X96650000Y-61700000D03*
D12*
X96800000Y-63750000D03*
X96800000Y-66250000D03*
X96800000Y-68600000D03*
X96800000Y-71100000D03*
X70900000Y-63500000D03*
X70900000Y-66000000D03*
D13*
X93000000Y-72150000D03*
X90500000Y-72150000D03*
D12*
X91700000Y-67300000D03*
X91700000Y-69800000D03*
D14*
X72700000Y-60075000D03*
X72700000Y-61975000D03*
X74700000Y-61025000D03*
X72725000Y-63850000D03*
X72725000Y-65750000D03*
X74725000Y-64800000D03*
X71025000Y-72900000D03*
X71025000Y-74800000D03*
X73025000Y-73850000D03*
D11*
X69225000Y-77950000D03*
X67325000Y-77950000D03*
X68275000Y-79950000D03*
D15*
X53000000Y-65500000D03*
D16*
X53000000Y-68040000D03*
X53000000Y-70580000D03*
X53000000Y-73120000D03*
X53000000Y-75660000D03*
D11*
X65850000Y-70300000D03*
X67750000Y-70300000D03*
X66800000Y-68300000D03*
X65775000Y-66750000D03*
X67675000Y-66750000D03*
X66725000Y-64750000D03*
X61000000Y-79880000D03*
X62900000Y-79880000D03*
X61950000Y-77880000D03*
X64175000Y-61150000D03*
X62275000Y-61150000D03*
X63225000Y-63150000D03*
X62200000Y-66750000D03*
X64100000Y-66750000D03*
X63150000Y-64750000D03*
X62150000Y-70300000D03*
X64050000Y-70300000D03*
X63100000Y-68300000D03*
X76400000Y-65775000D03*
X78300000Y-65775000D03*
X77350000Y-63775000D03*
D14*
X71175000Y-77925000D03*
X71175000Y-79825000D03*
X73175000Y-78875000D03*
D11*
X80175000Y-65825000D03*
X82075000Y-65825000D03*
X81125000Y-63825000D03*
D14*
X74775000Y-72925000D03*
X74775000Y-74825000D03*
X76775000Y-73875000D03*
D11*
X87675000Y-70025000D03*
X89575000Y-70025000D03*
X88625000Y-68025000D03*
D14*
X95150000Y-74500000D03*
X95150000Y-76400000D03*
X97150000Y-75450000D03*
X85300000Y-77550000D03*
X85300000Y-79450000D03*
X87300000Y-78500000D03*
X92150000Y-78975000D03*
X92150000Y-80875000D03*
X94150000Y-79925000D03*
X81000000Y-78950000D03*
X81000000Y-77050000D03*
X79000000Y-78000000D03*
D17*
X62300000Y-73900000D03*
X64840000Y-73900000D03*
X67380000Y-73900000D03*
X80300000Y-73500000D03*
X82840000Y-73500000D03*
X85380000Y-73500000D03*
D18*
X70400000Y-59050000D03*
X67700000Y-59050000D03*
D19*
X65100000Y-77825000D03*
X65100000Y-80525000D03*
D18*
X65275000Y-59075000D03*
X62575000Y-59075000D03*
D19*
X76625000Y-59175000D03*
X76625000Y-61875000D03*
D18*
X78750000Y-69900000D03*
X76050000Y-69900000D03*
X73850000Y-70825000D03*
X71150000Y-70825000D03*
D19*
X79950000Y-59200000D03*
X79950000Y-61900000D03*
X84975000Y-65000000D03*
X84975000Y-67700000D03*
D18*
X82750000Y-69800000D03*
X85450000Y-69800000D03*
X93025000Y-75700000D03*
X90325000Y-75700000D03*
D19*
X88975000Y-78100000D03*
X88975000Y-80800000D03*
X83300000Y-79950000D03*
X83300000Y-77250000D03*
D11*
X60450000Y-66475000D03*
X58550000Y-66475000D03*
X59500000Y-68475000D03*
D19*
X75000000Y-77600000D03*
X75000000Y-80300000D03*
D15*
X58000000Y-79000000D03*
D16*
X58000000Y-81540000D03*
D15*
X58000000Y-59000000D03*
D16*
X58000000Y-61540000D03*
D15*
X78200000Y-81500000D03*
D16*
X80740000Y-81500000D03*
M02*
