G04 #@! TF.FileFunction,Soldermask,Top*
%FSLAX46Y46*%
G04 Gerber Fmt 4.6, Leading zero omitted, Abs format (unit mm)*
G04 Created by KiCad (PCBNEW 4.0.7) date 05/17/21 01:31:18*
%MOMM*%
%LPD*%
G01*
G04 APERTURE LIST*
%ADD10C,0.100000*%
%ADD11R,1.200000X1.300000*%
%ADD12R,1.650000X1.900000*%
%ADD13R,1.900000X1.650000*%
%ADD14R,1.300000X1.200000*%
%ADD15C,1.840000*%
%ADD16R,1.900000X1.700000*%
%ADD17R,1.700000X1.900000*%
%ADD18R,2.100000X2.100000*%
%ADD19O,2.100000X2.100000*%
G04 APERTURE END LIST*
D10*
D11*
X67825000Y-61100000D03*
X65925000Y-61100000D03*
X66875000Y-63100000D03*
D12*
X92200000Y-59000000D03*
X92200000Y-61500000D03*
D13*
X94150000Y-61700000D03*
X96650000Y-61700000D03*
D12*
X96800000Y-63750000D03*
X96800000Y-66250000D03*
X96800000Y-68600000D03*
X96800000Y-71100000D03*
D13*
X93000000Y-72150000D03*
X90500000Y-72150000D03*
D12*
X91700000Y-67300000D03*
X91700000Y-69800000D03*
D14*
X71025000Y-72900000D03*
X71025000Y-74800000D03*
X73025000Y-73850000D03*
D11*
X69225000Y-77950000D03*
X67325000Y-77950000D03*
X68275000Y-79950000D03*
X66000000Y-66800000D03*
X67900000Y-66800000D03*
X66950000Y-64800000D03*
X61000000Y-79880000D03*
X62900000Y-79880000D03*
X61950000Y-77880000D03*
X64175000Y-61150000D03*
X62275000Y-61150000D03*
X63225000Y-63150000D03*
X62300000Y-66850000D03*
X64200000Y-66850000D03*
X63250000Y-64850000D03*
X71400000Y-66700000D03*
X73300000Y-66700000D03*
X72350000Y-64700000D03*
D14*
X71175000Y-77925000D03*
X71175000Y-79825000D03*
X73175000Y-78875000D03*
D11*
X78500000Y-64700000D03*
X76600000Y-64700000D03*
X77550000Y-66700000D03*
D14*
X74775000Y-72925000D03*
X74775000Y-74825000D03*
X76775000Y-73875000D03*
D11*
X87675000Y-70025000D03*
X89575000Y-70025000D03*
X88625000Y-68025000D03*
D14*
X95150000Y-74500000D03*
X95150000Y-76400000D03*
X97150000Y-75450000D03*
X87510000Y-77700000D03*
X87510000Y-79600000D03*
X89510000Y-78650000D03*
X92150000Y-78975000D03*
X92150000Y-80875000D03*
X94150000Y-79925000D03*
X80520000Y-80180000D03*
X80520000Y-78280000D03*
X78520000Y-79230000D03*
D15*
X62300000Y-73900000D03*
X64840000Y-73900000D03*
X67380000Y-73900000D03*
X80300000Y-73500000D03*
X82840000Y-73500000D03*
X85380000Y-73500000D03*
D16*
X70400000Y-59050000D03*
X67700000Y-59050000D03*
D17*
X65100000Y-77825000D03*
X65100000Y-80525000D03*
D16*
X65275000Y-59075000D03*
X62575000Y-59075000D03*
D17*
X79500000Y-60100000D03*
X79500000Y-62800000D03*
D16*
X71250000Y-68550000D03*
X73950000Y-68550000D03*
X73850000Y-70825000D03*
X71150000Y-70825000D03*
D17*
X76250000Y-60200000D03*
X76250000Y-62900000D03*
D16*
X80800000Y-66750000D03*
X83500000Y-66750000D03*
X82750000Y-69800000D03*
X85450000Y-69800000D03*
X93025000Y-75700000D03*
X90325000Y-75700000D03*
D17*
X85190000Y-80370000D03*
X85190000Y-77670000D03*
X82770000Y-77650000D03*
X82770000Y-80350000D03*
D11*
X60450000Y-66475000D03*
X58550000Y-66475000D03*
X59500000Y-68475000D03*
D17*
X75000000Y-77600000D03*
X75000000Y-80300000D03*
D18*
X58000000Y-79000000D03*
D19*
X58000000Y-81540000D03*
D18*
X58000000Y-59000000D03*
D19*
X58000000Y-61540000D03*
D16*
X66150000Y-70150000D03*
X68850000Y-70150000D03*
X61000000Y-70150000D03*
X63700000Y-70150000D03*
D18*
X53000000Y-65500000D03*
D19*
X53000000Y-68040000D03*
X53000000Y-70580000D03*
X53000000Y-73120000D03*
X53000000Y-75660000D03*
X53000000Y-78200000D03*
X53000000Y-80740000D03*
M02*
