G04 #@! TF.FileFunction,Copper,L2,Bot,Signal*
%FSLAX46Y46*%
G04 Gerber Fmt 4.6, Leading zero omitted, Abs format (unit mm)*
G04 Created by KiCad (PCBNEW 4.0.7) date 03/31/21 18:46:28*
%MOMM*%
%LPD*%
G01*
G04 APERTURE LIST*
%ADD10C,0.100000*%
%ADD11R,1.700000X1.700000*%
%ADD12O,1.700000X1.700000*%
%ADD13C,1.440000*%
%ADD14C,0.600000*%
%ADD15C,0.350000*%
%ADD16C,0.500000*%
G04 APERTURE END LIST*
D10*
D11*
X53000000Y-65500000D03*
D12*
X53000000Y-68040000D03*
X53000000Y-70580000D03*
X53000000Y-73120000D03*
X53000000Y-75660000D03*
D13*
X62300000Y-73900000D03*
X64840000Y-73900000D03*
X67380000Y-73900000D03*
X80300000Y-73500000D03*
X82840000Y-73500000D03*
X85380000Y-73500000D03*
D11*
X58000000Y-79000000D03*
D12*
X58000000Y-81540000D03*
D11*
X58000000Y-59000000D03*
D12*
X58000000Y-61540000D03*
D11*
X78200000Y-81500000D03*
D12*
X80740000Y-81500000D03*
D14*
X55100000Y-66900000D03*
X93950000Y-66950000D03*
X94800000Y-67450000D03*
X90300000Y-58600000D03*
X93700000Y-58500000D03*
X76700000Y-67500000D03*
X71600000Y-62300000D03*
X81500000Y-58400000D03*
X72250000Y-58450000D03*
X75600000Y-58100000D03*
X69850000Y-60250000D03*
X64050000Y-60050000D03*
X78000000Y-76800000D03*
X87000000Y-79800000D03*
X87700000Y-77200000D03*
X73400000Y-81000000D03*
X51470000Y-71570000D03*
X77950000Y-77950000D03*
X95700000Y-71450000D03*
X96550000Y-72350000D03*
X66400000Y-81550000D03*
X68250000Y-81200000D03*
X69850000Y-81000000D03*
X80300000Y-69900000D03*
X77250000Y-64750000D03*
X87650000Y-67125000D03*
X86575000Y-65625000D03*
D15*
X53000000Y-75660000D02*
X53940000Y-75660000D01*
X55100000Y-74500000D02*
X55100000Y-66900000D01*
X53940000Y-75660000D02*
X55100000Y-74500000D01*
X94300000Y-66950000D02*
X93950000Y-66950000D01*
X94800000Y-67450000D02*
X94300000Y-66950000D01*
X53000000Y-65500000D02*
X52560000Y-65500000D01*
X52560000Y-65500000D02*
X51310000Y-66750000D01*
X51310000Y-71410000D02*
X51470000Y-71570000D01*
X51310000Y-66750000D02*
X51310000Y-71410000D01*
X53000000Y-65500000D02*
X52500000Y-65500000D01*
X80750000Y-69500000D02*
X80300000Y-69900000D01*
X79800000Y-68550000D02*
X80750000Y-69500000D01*
X79200000Y-68550000D02*
X79800000Y-68550000D01*
X77300000Y-66650000D02*
X79200000Y-68550000D01*
X77300000Y-64800000D02*
X77300000Y-66650000D01*
X77250000Y-64750000D02*
X77300000Y-64800000D01*
X87650000Y-66700000D02*
X87650000Y-67125000D01*
X86575000Y-65625000D02*
X87650000Y-66700000D01*
D16*
G36*
X52044756Y-69310000D02*
X51837283Y-69448629D01*
X51490447Y-69967707D01*
X51368654Y-70580000D01*
X51490447Y-71192293D01*
X51837283Y-71711371D01*
X52044756Y-71850000D01*
X51837283Y-71988629D01*
X51490447Y-72507707D01*
X51368654Y-73120000D01*
X51490447Y-73732293D01*
X51837283Y-74251371D01*
X52044756Y-74390000D01*
X51837283Y-74528629D01*
X51490447Y-75047707D01*
X51368654Y-75660000D01*
X51490447Y-76272293D01*
X51837283Y-76791371D01*
X52356361Y-77138207D01*
X52968654Y-77260000D01*
X53031346Y-77260000D01*
X53643639Y-77138207D01*
X54162717Y-76791371D01*
X54390947Y-76449799D01*
X54594074Y-76314074D01*
X55754074Y-75154074D01*
X55954589Y-74853982D01*
X56025001Y-74500000D01*
X56025000Y-74499995D01*
X56025000Y-74191118D01*
X60829745Y-74191118D01*
X61053068Y-74731600D01*
X61466225Y-75145479D01*
X62006316Y-75369744D01*
X62591118Y-75370255D01*
X63131600Y-75146932D01*
X63545479Y-74733775D01*
X63569783Y-74675245D01*
X63593068Y-74731600D01*
X64006225Y-75145479D01*
X64546316Y-75369744D01*
X65131118Y-75370255D01*
X65671600Y-75146932D01*
X66085479Y-74733775D01*
X66109783Y-74675245D01*
X66133068Y-74731600D01*
X66546225Y-75145479D01*
X67086316Y-75369744D01*
X67671118Y-75370255D01*
X68211600Y-75146932D01*
X68625479Y-74733775D01*
X68849744Y-74193684D01*
X68850095Y-73791118D01*
X78829745Y-73791118D01*
X79053068Y-74331600D01*
X79466225Y-74745479D01*
X80006316Y-74969744D01*
X80591118Y-74970255D01*
X81131600Y-74746932D01*
X81545479Y-74333775D01*
X81569783Y-74275245D01*
X81593068Y-74331600D01*
X82006225Y-74745479D01*
X82546316Y-74969744D01*
X83131118Y-74970255D01*
X83671600Y-74746932D01*
X84085479Y-74333775D01*
X84109783Y-74275245D01*
X84133068Y-74331600D01*
X84546225Y-74745479D01*
X85086316Y-74969744D01*
X85671118Y-74970255D01*
X86211600Y-74746932D01*
X86625479Y-74333775D01*
X86849744Y-73793684D01*
X86850255Y-73208882D01*
X86626932Y-72668400D01*
X86213775Y-72254521D01*
X85673684Y-72030256D01*
X85088882Y-72029745D01*
X84548400Y-72253068D01*
X84134521Y-72666225D01*
X84110217Y-72724755D01*
X84086932Y-72668400D01*
X83673775Y-72254521D01*
X83133684Y-72030256D01*
X82548882Y-72029745D01*
X82008400Y-72253068D01*
X81594521Y-72666225D01*
X81570217Y-72724755D01*
X81546932Y-72668400D01*
X81133775Y-72254521D01*
X80593684Y-72030256D01*
X80008882Y-72029745D01*
X79468400Y-72253068D01*
X79054521Y-72666225D01*
X78830256Y-73206316D01*
X78829745Y-73791118D01*
X68850095Y-73791118D01*
X68850255Y-73608882D01*
X68626932Y-73068400D01*
X68213775Y-72654521D01*
X67673684Y-72430256D01*
X67088882Y-72429745D01*
X66548400Y-72653068D01*
X66134521Y-73066225D01*
X66110217Y-73124755D01*
X66086932Y-73068400D01*
X65673775Y-72654521D01*
X65133684Y-72430256D01*
X64548882Y-72429745D01*
X64008400Y-72653068D01*
X63594521Y-73066225D01*
X63570217Y-73124755D01*
X63546932Y-73068400D01*
X63133775Y-72654521D01*
X62593684Y-72430256D01*
X62008882Y-72429745D01*
X61468400Y-72653068D01*
X61054521Y-73066225D01*
X60830256Y-73606316D01*
X60829745Y-74191118D01*
X56025000Y-74191118D01*
X56025000Y-69250000D01*
X97175000Y-69250000D01*
X97175000Y-82675000D01*
X81852988Y-82675000D01*
X81871371Y-82662717D01*
X82218207Y-82143639D01*
X82340000Y-81531346D01*
X82340000Y-81468654D01*
X82218207Y-80856361D01*
X81871371Y-80337283D01*
X81352293Y-79990447D01*
X80740000Y-79868654D01*
X80127707Y-79990447D01*
X79700509Y-80275891D01*
X79598138Y-80116802D01*
X79347508Y-79945554D01*
X79050000Y-79885307D01*
X77350000Y-79885307D01*
X77072067Y-79937604D01*
X76816802Y-80101862D01*
X76645554Y-80352492D01*
X76585307Y-80650000D01*
X76585307Y-82350000D01*
X76637604Y-82627933D01*
X76667891Y-82675000D01*
X59250002Y-82675000D01*
X59250002Y-82524534D01*
X59465241Y-82202369D01*
X59353336Y-81965000D01*
X58425000Y-81965000D01*
X58425000Y-82390000D01*
X57575000Y-82390000D01*
X57575000Y-81965000D01*
X56646664Y-81965000D01*
X56534759Y-82202369D01*
X56749998Y-82524534D01*
X56749998Y-82675000D01*
X51325000Y-82675000D01*
X51325000Y-79614500D01*
X56392000Y-79614500D01*
X56392000Y-80000775D01*
X56507398Y-80279372D01*
X56720627Y-80492601D01*
X56776528Y-80515756D01*
X56534759Y-80877631D01*
X56646664Y-81115000D01*
X57575000Y-81115000D01*
X57575000Y-79425000D01*
X58425000Y-79425000D01*
X58425000Y-81115000D01*
X59353336Y-81115000D01*
X59465241Y-80877631D01*
X59223472Y-80515756D01*
X59279373Y-80492601D01*
X59492602Y-80279372D01*
X59608000Y-80000775D01*
X59608000Y-79614500D01*
X59418500Y-79425000D01*
X58425000Y-79425000D01*
X57575000Y-79425000D01*
X56581500Y-79425000D01*
X56392000Y-79614500D01*
X51325000Y-79614500D01*
X51325000Y-77999225D01*
X56392000Y-77999225D01*
X56392000Y-78385500D01*
X56581500Y-78575000D01*
X57575000Y-78575000D01*
X57575000Y-77581500D01*
X58425000Y-77581500D01*
X58425000Y-78575000D01*
X59418500Y-78575000D01*
X59608000Y-78385500D01*
X59608000Y-77999225D01*
X59492602Y-77720628D01*
X59279373Y-77507399D01*
X59000776Y-77392000D01*
X58614500Y-77392000D01*
X58425000Y-77581500D01*
X57575000Y-77581500D01*
X57385500Y-77392000D01*
X56999224Y-77392000D01*
X56720627Y-77507399D01*
X56507398Y-77720628D01*
X56392000Y-77999225D01*
X51325000Y-77999225D01*
X51325000Y-69250000D01*
X51954960Y-69250000D01*
X52044756Y-69310000D01*
X52044756Y-69310000D01*
G37*
X52044756Y-69310000D02*
X51837283Y-69448629D01*
X51490447Y-69967707D01*
X51368654Y-70580000D01*
X51490447Y-71192293D01*
X51837283Y-71711371D01*
X52044756Y-71850000D01*
X51837283Y-71988629D01*
X51490447Y-72507707D01*
X51368654Y-73120000D01*
X51490447Y-73732293D01*
X51837283Y-74251371D01*
X52044756Y-74390000D01*
X51837283Y-74528629D01*
X51490447Y-75047707D01*
X51368654Y-75660000D01*
X51490447Y-76272293D01*
X51837283Y-76791371D01*
X52356361Y-77138207D01*
X52968654Y-77260000D01*
X53031346Y-77260000D01*
X53643639Y-77138207D01*
X54162717Y-76791371D01*
X54390947Y-76449799D01*
X54594074Y-76314074D01*
X55754074Y-75154074D01*
X55954589Y-74853982D01*
X56025001Y-74500000D01*
X56025000Y-74499995D01*
X56025000Y-74191118D01*
X60829745Y-74191118D01*
X61053068Y-74731600D01*
X61466225Y-75145479D01*
X62006316Y-75369744D01*
X62591118Y-75370255D01*
X63131600Y-75146932D01*
X63545479Y-74733775D01*
X63569783Y-74675245D01*
X63593068Y-74731600D01*
X64006225Y-75145479D01*
X64546316Y-75369744D01*
X65131118Y-75370255D01*
X65671600Y-75146932D01*
X66085479Y-74733775D01*
X66109783Y-74675245D01*
X66133068Y-74731600D01*
X66546225Y-75145479D01*
X67086316Y-75369744D01*
X67671118Y-75370255D01*
X68211600Y-75146932D01*
X68625479Y-74733775D01*
X68849744Y-74193684D01*
X68850095Y-73791118D01*
X78829745Y-73791118D01*
X79053068Y-74331600D01*
X79466225Y-74745479D01*
X80006316Y-74969744D01*
X80591118Y-74970255D01*
X81131600Y-74746932D01*
X81545479Y-74333775D01*
X81569783Y-74275245D01*
X81593068Y-74331600D01*
X82006225Y-74745479D01*
X82546316Y-74969744D01*
X83131118Y-74970255D01*
X83671600Y-74746932D01*
X84085479Y-74333775D01*
X84109783Y-74275245D01*
X84133068Y-74331600D01*
X84546225Y-74745479D01*
X85086316Y-74969744D01*
X85671118Y-74970255D01*
X86211600Y-74746932D01*
X86625479Y-74333775D01*
X86849744Y-73793684D01*
X86850255Y-73208882D01*
X86626932Y-72668400D01*
X86213775Y-72254521D01*
X85673684Y-72030256D01*
X85088882Y-72029745D01*
X84548400Y-72253068D01*
X84134521Y-72666225D01*
X84110217Y-72724755D01*
X84086932Y-72668400D01*
X83673775Y-72254521D01*
X83133684Y-72030256D01*
X82548882Y-72029745D01*
X82008400Y-72253068D01*
X81594521Y-72666225D01*
X81570217Y-72724755D01*
X81546932Y-72668400D01*
X81133775Y-72254521D01*
X80593684Y-72030256D01*
X80008882Y-72029745D01*
X79468400Y-72253068D01*
X79054521Y-72666225D01*
X78830256Y-73206316D01*
X78829745Y-73791118D01*
X68850095Y-73791118D01*
X68850255Y-73608882D01*
X68626932Y-73068400D01*
X68213775Y-72654521D01*
X67673684Y-72430256D01*
X67088882Y-72429745D01*
X66548400Y-72653068D01*
X66134521Y-73066225D01*
X66110217Y-73124755D01*
X66086932Y-73068400D01*
X65673775Y-72654521D01*
X65133684Y-72430256D01*
X64548882Y-72429745D01*
X64008400Y-72653068D01*
X63594521Y-73066225D01*
X63570217Y-73124755D01*
X63546932Y-73068400D01*
X63133775Y-72654521D01*
X62593684Y-72430256D01*
X62008882Y-72429745D01*
X61468400Y-72653068D01*
X61054521Y-73066225D01*
X60830256Y-73606316D01*
X60829745Y-74191118D01*
X56025000Y-74191118D01*
X56025000Y-69250000D01*
X97175000Y-69250000D01*
X97175000Y-82675000D01*
X81852988Y-82675000D01*
X81871371Y-82662717D01*
X82218207Y-82143639D01*
X82340000Y-81531346D01*
X82340000Y-81468654D01*
X82218207Y-80856361D01*
X81871371Y-80337283D01*
X81352293Y-79990447D01*
X80740000Y-79868654D01*
X80127707Y-79990447D01*
X79700509Y-80275891D01*
X79598138Y-80116802D01*
X79347508Y-79945554D01*
X79050000Y-79885307D01*
X77350000Y-79885307D01*
X77072067Y-79937604D01*
X76816802Y-80101862D01*
X76645554Y-80352492D01*
X76585307Y-80650000D01*
X76585307Y-82350000D01*
X76637604Y-82627933D01*
X76667891Y-82675000D01*
X59250002Y-82675000D01*
X59250002Y-82524534D01*
X59465241Y-82202369D01*
X59353336Y-81965000D01*
X58425000Y-81965000D01*
X58425000Y-82390000D01*
X57575000Y-82390000D01*
X57575000Y-81965000D01*
X56646664Y-81965000D01*
X56534759Y-82202369D01*
X56749998Y-82524534D01*
X56749998Y-82675000D01*
X51325000Y-82675000D01*
X51325000Y-79614500D01*
X56392000Y-79614500D01*
X56392000Y-80000775D01*
X56507398Y-80279372D01*
X56720627Y-80492601D01*
X56776528Y-80515756D01*
X56534759Y-80877631D01*
X56646664Y-81115000D01*
X57575000Y-81115000D01*
X57575000Y-79425000D01*
X58425000Y-79425000D01*
X58425000Y-81115000D01*
X59353336Y-81115000D01*
X59465241Y-80877631D01*
X59223472Y-80515756D01*
X59279373Y-80492601D01*
X59492602Y-80279372D01*
X59608000Y-80000775D01*
X59608000Y-79614500D01*
X59418500Y-79425000D01*
X58425000Y-79425000D01*
X57575000Y-79425000D01*
X56581500Y-79425000D01*
X56392000Y-79614500D01*
X51325000Y-79614500D01*
X51325000Y-77999225D01*
X56392000Y-77999225D01*
X56392000Y-78385500D01*
X56581500Y-78575000D01*
X57575000Y-78575000D01*
X57575000Y-77581500D01*
X58425000Y-77581500D01*
X58425000Y-78575000D01*
X59418500Y-78575000D01*
X59608000Y-78385500D01*
X59608000Y-77999225D01*
X59492602Y-77720628D01*
X59279373Y-77507399D01*
X59000776Y-77392000D01*
X58614500Y-77392000D01*
X58425000Y-77581500D01*
X57575000Y-77581500D01*
X57385500Y-77392000D01*
X56999224Y-77392000D01*
X56720627Y-77507399D01*
X56507398Y-77720628D01*
X56392000Y-77999225D01*
X51325000Y-77999225D01*
X51325000Y-69250000D01*
X51954960Y-69250000D01*
X52044756Y-69310000D01*
G36*
X56392000Y-57999225D02*
X56392000Y-58385500D01*
X56581500Y-58575000D01*
X57575000Y-58575000D01*
X57575000Y-58150000D01*
X58425000Y-58150000D01*
X58425000Y-58575000D01*
X59418500Y-58575000D01*
X59608000Y-58385500D01*
X59608000Y-57999225D01*
X59535834Y-57825000D01*
X97175000Y-57825000D01*
X97175000Y-67750000D01*
X88510131Y-67750000D01*
X88539628Y-67720554D01*
X88699818Y-67334774D01*
X88700182Y-66917058D01*
X88542052Y-66534353D01*
X88504589Y-66346018D01*
X88459858Y-66279074D01*
X88304074Y-66045926D01*
X88304071Y-66045924D01*
X87589959Y-65331811D01*
X87465666Y-65031000D01*
X87170554Y-64735372D01*
X86784774Y-64575182D01*
X86367058Y-64574818D01*
X85981000Y-64734334D01*
X85685372Y-65029446D01*
X85525182Y-65415226D01*
X85524818Y-65832942D01*
X85684334Y-66219000D01*
X85979446Y-66514628D01*
X86282191Y-66640339D01*
X86600144Y-66958292D01*
X86599818Y-67332942D01*
X86759334Y-67719000D01*
X86790280Y-67750000D01*
X80235681Y-67750000D01*
X80153983Y-67695411D01*
X79800000Y-67625000D01*
X79583148Y-67625000D01*
X78225000Y-66266852D01*
X78225000Y-65139956D01*
X78299818Y-64959774D01*
X78300182Y-64542058D01*
X78140666Y-64156000D01*
X77845554Y-63860372D01*
X77459774Y-63700182D01*
X77042058Y-63699818D01*
X76656000Y-63859334D01*
X76360372Y-64154446D01*
X76200182Y-64540226D01*
X76199818Y-64957942D01*
X76359334Y-65344000D01*
X76375000Y-65359693D01*
X76375000Y-66650000D01*
X76445411Y-67003983D01*
X76645926Y-67304074D01*
X77091852Y-67750000D01*
X54573661Y-67750000D01*
X54509553Y-67427707D01*
X54224109Y-67000509D01*
X54383198Y-66898138D01*
X54554446Y-66647508D01*
X54614693Y-66350000D01*
X54614693Y-64650000D01*
X54562396Y-64372067D01*
X54398138Y-64116802D01*
X54147508Y-63945554D01*
X53850000Y-63885307D01*
X52150000Y-63885307D01*
X51872067Y-63937604D01*
X51616802Y-64101862D01*
X51445554Y-64352492D01*
X51385307Y-64650000D01*
X51385307Y-65366545D01*
X51325000Y-65426852D01*
X51325000Y-62202369D01*
X56534759Y-62202369D01*
X56827311Y-62640255D01*
X57337626Y-63005272D01*
X57575000Y-62901350D01*
X57575000Y-61965000D01*
X58425000Y-61965000D01*
X58425000Y-62901350D01*
X58662374Y-63005272D01*
X59172689Y-62640255D01*
X59465241Y-62202369D01*
X59353336Y-61965000D01*
X58425000Y-61965000D01*
X57575000Y-61965000D01*
X56646664Y-61965000D01*
X56534759Y-62202369D01*
X51325000Y-62202369D01*
X51325000Y-59614500D01*
X56392000Y-59614500D01*
X56392000Y-60000775D01*
X56507398Y-60279372D01*
X56720627Y-60492601D01*
X56776528Y-60515756D01*
X56534759Y-60877631D01*
X56646664Y-61115000D01*
X57575000Y-61115000D01*
X57575000Y-59425000D01*
X58425000Y-59425000D01*
X58425000Y-61115000D01*
X59353336Y-61115000D01*
X59465241Y-60877631D01*
X59223472Y-60515756D01*
X59279373Y-60492601D01*
X59492602Y-60279372D01*
X59608000Y-60000775D01*
X59608000Y-59614500D01*
X59418500Y-59425000D01*
X58425000Y-59425000D01*
X57575000Y-59425000D01*
X56581500Y-59425000D01*
X56392000Y-59614500D01*
X51325000Y-59614500D01*
X51325000Y-57825000D01*
X56464166Y-57825000D01*
X56392000Y-57999225D01*
X56392000Y-57999225D01*
G37*
X56392000Y-57999225D02*
X56392000Y-58385500D01*
X56581500Y-58575000D01*
X57575000Y-58575000D01*
X57575000Y-58150000D01*
X58425000Y-58150000D01*
X58425000Y-58575000D01*
X59418500Y-58575000D01*
X59608000Y-58385500D01*
X59608000Y-57999225D01*
X59535834Y-57825000D01*
X97175000Y-57825000D01*
X97175000Y-67750000D01*
X88510131Y-67750000D01*
X88539628Y-67720554D01*
X88699818Y-67334774D01*
X88700182Y-66917058D01*
X88542052Y-66534353D01*
X88504589Y-66346018D01*
X88459858Y-66279074D01*
X88304074Y-66045926D01*
X88304071Y-66045924D01*
X87589959Y-65331811D01*
X87465666Y-65031000D01*
X87170554Y-64735372D01*
X86784774Y-64575182D01*
X86367058Y-64574818D01*
X85981000Y-64734334D01*
X85685372Y-65029446D01*
X85525182Y-65415226D01*
X85524818Y-65832942D01*
X85684334Y-66219000D01*
X85979446Y-66514628D01*
X86282191Y-66640339D01*
X86600144Y-66958292D01*
X86599818Y-67332942D01*
X86759334Y-67719000D01*
X86790280Y-67750000D01*
X80235681Y-67750000D01*
X80153983Y-67695411D01*
X79800000Y-67625000D01*
X79583148Y-67625000D01*
X78225000Y-66266852D01*
X78225000Y-65139956D01*
X78299818Y-64959774D01*
X78300182Y-64542058D01*
X78140666Y-64156000D01*
X77845554Y-63860372D01*
X77459774Y-63700182D01*
X77042058Y-63699818D01*
X76656000Y-63859334D01*
X76360372Y-64154446D01*
X76200182Y-64540226D01*
X76199818Y-64957942D01*
X76359334Y-65344000D01*
X76375000Y-65359693D01*
X76375000Y-66650000D01*
X76445411Y-67003983D01*
X76645926Y-67304074D01*
X77091852Y-67750000D01*
X54573661Y-67750000D01*
X54509553Y-67427707D01*
X54224109Y-67000509D01*
X54383198Y-66898138D01*
X54554446Y-66647508D01*
X54614693Y-66350000D01*
X54614693Y-64650000D01*
X54562396Y-64372067D01*
X54398138Y-64116802D01*
X54147508Y-63945554D01*
X53850000Y-63885307D01*
X52150000Y-63885307D01*
X51872067Y-63937604D01*
X51616802Y-64101862D01*
X51445554Y-64352492D01*
X51385307Y-64650000D01*
X51385307Y-65366545D01*
X51325000Y-65426852D01*
X51325000Y-62202369D01*
X56534759Y-62202369D01*
X56827311Y-62640255D01*
X57337626Y-63005272D01*
X57575000Y-62901350D01*
X57575000Y-61965000D01*
X58425000Y-61965000D01*
X58425000Y-62901350D01*
X58662374Y-63005272D01*
X59172689Y-62640255D01*
X59465241Y-62202369D01*
X59353336Y-61965000D01*
X58425000Y-61965000D01*
X57575000Y-61965000D01*
X56646664Y-61965000D01*
X56534759Y-62202369D01*
X51325000Y-62202369D01*
X51325000Y-59614500D01*
X56392000Y-59614500D01*
X56392000Y-60000775D01*
X56507398Y-60279372D01*
X56720627Y-60492601D01*
X56776528Y-60515756D01*
X56534759Y-60877631D01*
X56646664Y-61115000D01*
X57575000Y-61115000D01*
X57575000Y-59425000D01*
X58425000Y-59425000D01*
X58425000Y-61115000D01*
X59353336Y-61115000D01*
X59465241Y-60877631D01*
X59223472Y-60515756D01*
X59279373Y-60492601D01*
X59492602Y-60279372D01*
X59608000Y-60000775D01*
X59608000Y-59614500D01*
X59418500Y-59425000D01*
X58425000Y-59425000D01*
X57575000Y-59425000D01*
X56581500Y-59425000D01*
X56392000Y-59614500D01*
X51325000Y-59614500D01*
X51325000Y-57825000D01*
X56464166Y-57825000D01*
X56392000Y-57999225D01*
M02*
