M48
;DRILL file {KiCad 4.0.7} date 05/17/21 01:31:19
;FORMAT={-:-/ absolute / metric / decimal}
FMAT,2
METRIC,TZ
T1C0.400
T2C0.800
T3C1.000
%
G90
G05
M71
T1
X51.47Y-71.57
X55.1Y-66.9
X64.7Y-57.75
X66.4Y-81.55
X68.25Y-81.2
X69.85Y-81.
X70.Y-67.3
X72.1Y-58.05
X72.45Y-70.75
X73.4Y-81.
X76.1Y-58.75
X78.12Y-80.26
X78.22Y-78.16
X79.25Y-58.75
X89.54Y-77.6
X89.61Y-79.63
X90.3Y-58.6
X93.7Y-58.5
X93.95Y-66.95
X94.8Y-67.45
X95.7Y-71.45
X96.55Y-72.35
T2
X62.3Y-73.9
X64.84Y-73.9
X67.38Y-73.9
X80.3Y-73.5
X82.84Y-73.5
X85.38Y-73.5
T3
X53.Y-65.5
X53.Y-68.04
X53.Y-70.58
X53.Y-73.12
X53.Y-75.66
X53.Y-78.2
X53.Y-80.74
X58.Y-59.
X58.Y-61.54
X58.Y-79.
X58.Y-81.54
T0
M30
